<?xml version="1.0" encoding="utf-8" standalone="no"?>
<svg xmlns:xlink="http://www.w3.org/1999/xlink" width="609.137891pt" height="317.453062pt" viewBox="0 0 609.137891 317.453062" xmlns="http://www.w3.org/2000/svg" version="1.1">
 <metadata>
  <rdf:RDF xmlns:dc="http://purl.org/dc/elements/1.1/" xmlns:cc="http://creativecommons.org/ns#" xmlns:rdf="http://www.w3.org/1999/02/22-rdf-syntax-ns#">
   <cc:Work>
    <dc:type rdf:resource="http://purl.org/dc/dcmitype/StillImage"/>
    <dc:date>2026-10-09T17:42:55.383574</dc:date>
    <dc:format>image/svg+xml</dc:format>
    <dc:creator>
     <cc:Agent>
      <dc:title>Matplotlib v3.10.6, https://matplotlib.org/</dc:title>
     </cc:Agent>
    </dc:creator>
   </cc:Work>
  </rdf:RDF>
 </metadata>
 <defs>
  <style type="text/css">*{stroke-linejoin: round; stroke-linecap: butt}</style>
 </defs>
 <g id="figure_1">
  <g id="patch_1">
   <path d="M 0 317.453062 
L 609.137891 317.453062 
L 609.137891 0 
L 0 0 
z
" style="fill: #ffffff"/>
  </g>
  <g id="axes_1">
   <g id="patch_2">
    <path d="M 41.452891 244.183359 
L 595.312891 244.183359 
L 595.312891 58.063359 
L 41.452891 58.063359 
z
" style="fill: #ffffff"/>
   </g>
   <g id="matplotlib.axis_1">
    <g id="xtick_1">
     <g id="line2d_1"/>
     <g id="text_1">
      <!-- MedQA -->
      <g style="fill: #4a4f57" transform="translate(104.383443 256.966953) scale(0.095 -0.095)">
       <defs>
        <path id="HelveticaNeue-4d" d="M 512 4570 
L 512 0 
L 1088 0 
L 1088 3802 
L 1101 3802 
L 2528 0 
L 3046 0 
L 4474 3802 
L 4486 3802 
L 4486 0 
L 5062 0 
L 5062 4570 
L 4230 4570 
L 2784 730 
L 1344 4570 
L 512 4570 
z
" transform="scale(0.015625)"/>
        <path id="HelveticaNeue-65" d="M 2707 1971 
L 806 1971 
Q 819 2163 889 2332 
Q 960 2502 1081 2630 
Q 1203 2758 1372 2832 
Q 1542 2906 1754 2906 
Q 1958 2906 2128 2832 
Q 2298 2758 2422 2633 
Q 2547 2509 2620 2336 
Q 2694 2163 2707 1971 
z
M 3232 1050 
L 2694 1050 
Q 2624 723 2403 563 
Q 2182 403 1837 403 
Q 1568 403 1369 492 
Q 1171 582 1043 732 
Q 915 883 857 1078 
Q 800 1274 806 1491 
L 3283 1491 
Q 3296 1792 3229 2125 
Q 3162 2458 2986 2739 
Q 2810 3021 2518 3203 
Q 2227 3386 1786 3386 
Q 1446 3386 1161 3258 
Q 877 3130 669 2899 
Q 461 2669 345 2355 
Q 230 2042 230 1664 
Q 243 1286 342 966 
Q 442 646 640 416 
Q 838 186 1129 58 
Q 1421 -70 1818 -70 
Q 2381 -70 2752 211 
Q 3123 493 3232 1050 
z
" transform="scale(0.015625)"/>
        <path id="HelveticaNeue-64" d="M 806 1626 
Q 806 1869 857 2099 
Q 909 2330 1024 2509 
Q 1139 2688 1331 2797 
Q 1523 2906 1798 2906 
Q 2080 2906 2278 2800 
Q 2477 2694 2601 2521 
Q 2726 2349 2784 2121 
Q 2842 1894 2842 1651 
Q 2842 1421 2787 1197 
Q 2733 973 2611 797 
Q 2490 621 2298 512 
Q 2106 403 1830 403 
Q 1568 403 1373 505 
Q 1178 608 1053 781 
Q 928 954 867 1174 
Q 806 1395 806 1626 
z
M 3366 0 
L 3366 4570 
L 2822 4570 
L 2822 2867 
L 2810 2867 
Q 2720 3014 2589 3113 
Q 2458 3213 2310 3273 
Q 2163 3334 2016 3360 
Q 1869 3386 1741 3386 
Q 1363 3386 1078 3248 
Q 794 3110 605 2876 
Q 416 2643 323 2329 
Q 230 2016 230 1664 
Q 230 1312 326 998 
Q 422 685 611 448 
Q 800 211 1085 70 
Q 1370 -70 1754 -70 
Q 2099 -70 2387 51 
Q 2675 173 2810 448 
L 2822 448 
L 2822 0 
L 3366 0 
z
" transform="scale(0.015625)"/>
        <path id="HelveticaNeue-51" d="M 2880 1306 
L 2560 934 
L 3066 531 
Q 2758 403 2432 403 
Q 2016 403 1715 566 
Q 1414 730 1222 998 
Q 1030 1267 940 1603 
Q 851 1939 851 2285 
Q 851 2630 940 2966 
Q 1030 3302 1222 3571 
Q 1414 3840 1715 4003 
Q 2016 4166 2432 4166 
Q 2848 4166 3149 4003 
Q 3450 3840 3642 3571 
Q 3834 3302 3923 2966 
Q 4013 2630 4013 2285 
Q 4013 1862 3885 1475 
Q 3757 1088 3488 819 
L 2880 1306 
z
M 4224 -390 
L 4531 -6 
L 3930 467 
Q 4275 813 4448 1286 
Q 4621 1760 4621 2285 
Q 4621 2752 4483 3184 
Q 4346 3616 4070 3949 
Q 3795 4282 3385 4480 
Q 2976 4678 2432 4678 
Q 1888 4678 1478 4480 
Q 1069 4282 793 3949 
Q 518 3616 380 3184 
Q 243 2752 243 2285 
Q 243 1818 380 1386 
Q 518 954 793 621 
Q 1069 288 1478 93 
Q 1888 -102 2432 -102 
Q 3066 -102 3526 166 
L 4224 -390 
z
" transform="scale(0.015625)"/>
        <path id="HelveticaNeue-41" d="M 1286 1888 
L 2061 4019 
L 2074 4019 
L 2835 1888 
L 1286 1888 
z
M 1741 4570 
L -38 0 
L 582 0 
L 1094 1376 
L 3027 1376 
L 3526 0 
L 4198 0 
L 2413 4570 
L 1741 4570 
z
" transform="scale(0.015625)"/>
       </defs>
       <use xlink:href="#HelveticaNeue-4d"/>
       <use xlink:href="#HelveticaNeue-65" transform="translate(87.099991 0)"/>
       <use xlink:href="#HelveticaNeue-64" transform="translate(140.799988 0)"/>
       <use xlink:href="#HelveticaNeue-51" transform="translate(200.099976 0)"/>
       <use xlink:href="#HelveticaNeue-41" transform="translate(276.09996 0)"/>
      </g>
      <!-- n = 400 -->
      <g style="fill: #4a4f57" transform="translate(104.522232 268.335781) scale(0.095 -0.095)">
       <defs>
        <path id="HelveticaNeue-6e" d="M 410 3309 
L 410 0 
L 954 0 
L 954 1869 
Q 954 2093 1014 2281 
Q 1075 2470 1196 2611 
Q 1318 2752 1500 2829 
Q 1683 2906 1933 2906 
Q 2246 2906 2425 2726 
Q 2605 2547 2605 2240 
L 2605 0 
L 3149 0 
L 3149 2176 
Q 3149 2445 3094 2665 
Q 3040 2886 2905 3046 
Q 2771 3206 2553 3296 
Q 2336 3386 2010 3386 
Q 1274 3386 934 2784 
L 922 2784 
L 922 3309 
L 410 3309 
z
" transform="scale(0.015625)"/>
        <path id="HelveticaNeue-20" transform="scale(0.015625)"/>
        <path id="HelveticaNeue-3d" d="M 307 1190 
L 307 755 
L 3533 755 
L 3533 1190 
L 307 1190 
z
M 3533 2048 
L 3533 2483 
L 307 2483 
L 307 2048 
L 3533 2048 
z
" transform="scale(0.015625)"/>
        <path id="HelveticaNeue-34" d="M 2170 1542 
L 646 1542 
L 2157 3763 
L 2170 3763 
L 2170 1542 
z
M 2682 1542 
L 2682 4538 
L 2246 4538 
L 179 1587 
L 179 1062 
L 2170 1062 
L 2170 0 
L 2682 0 
L 2682 1062 
L 3296 1062 
L 3296 1542 
L 2682 1542 
z
" transform="scale(0.015625)"/>
        <path id="HelveticaNeue-30" d="M 845 2234 
Q 845 2400 848 2601 
Q 851 2803 880 3004 
Q 909 3206 963 3398 
Q 1018 3590 1123 3734 
Q 1229 3878 1389 3968 
Q 1549 4058 1779 4058 
Q 2010 4058 2170 3968 
Q 2330 3878 2435 3734 
Q 2541 3590 2595 3398 
Q 2650 3206 2678 3004 
Q 2707 2803 2710 2601 
Q 2714 2400 2714 2234 
Q 2714 1978 2698 1661 
Q 2682 1344 2595 1065 
Q 2509 787 2317 595 
Q 2125 403 1779 403 
Q 1434 403 1242 595 
Q 1050 787 963 1065 
Q 877 1344 861 1661 
Q 845 1978 845 2234 
z
M 269 2227 
Q 269 1978 281 1709 
Q 294 1440 345 1184 
Q 397 928 493 701 
Q 589 474 755 301 
Q 922 128 1174 29 
Q 1427 -70 1779 -70 
Q 2138 -70 2387 29 
Q 2637 128 2803 301 
Q 2970 474 3066 701 
Q 3162 928 3213 1184 
Q 3264 1440 3277 1709 
Q 3290 1978 3290 2227 
Q 3290 2477 3277 2745 
Q 3264 3014 3213 3270 
Q 3162 3526 3066 3756 
Q 2970 3987 2803 4160 
Q 2637 4333 2384 4435 
Q 2131 4538 1779 4538 
Q 1427 4538 1174 4435 
Q 922 4333 755 4160 
Q 589 3987 493 3756 
Q 397 3526 345 3270 
Q 294 3014 281 2745 
Q 269 2477 269 2227 
z
" transform="scale(0.015625)"/>
       </defs>
       <use xlink:href="#HelveticaNeue-6e"/>
       <use xlink:href="#HelveticaNeue-20" transform="translate(55.599991 0)"/>
       <use xlink:href="#HelveticaNeue-3d" transform="translate(83.399979 0)"/>
       <use xlink:href="#HelveticaNeue-20" transform="translate(143.399963 0)"/>
       <use xlink:href="#HelveticaNeue-34" transform="translate(171.199951 0)"/>
       <use xlink:href="#HelveticaNeue-30" transform="translate(226.799942 0)"/>
       <use xlink:href="#HelveticaNeue-30" transform="translate(282.399933 0)"/>
      </g>
     </g>
    </g>
    <g id="xtick_2">
     <g id="line2d_2"/>
     <g id="text_2">
      <!-- AQuA-RAT -->
      <g style="fill: #4a4f57" transform="translate(229.5737 256.966953) scale(0.095 -0.095)">
       <defs>
        <path id="HelveticaNeue-75" d="M 3149 0 
L 3149 3309 
L 2605 3309 
L 2605 1440 
Q 2605 1216 2544 1027 
Q 2483 838 2361 697 
Q 2240 557 2057 480 
Q 1875 403 1626 403 
Q 1312 403 1133 582 
Q 954 762 954 1069 
L 954 3309 
L 410 3309 
L 410 1133 
Q 410 864 464 643 
Q 518 422 652 262 
Q 787 102 1004 16 
Q 1222 -70 1549 -70 
Q 1914 -70 2182 74 
Q 2451 218 2624 525 
L 2637 525 
L 2637 0 
L 3149 0 
z
" transform="scale(0.015625)"/>
        <path id="HelveticaNeue-2d" d="M 320 2035 
L 320 1523 
L 2170 1523 
L 2170 2035 
L 320 2035 
z
" transform="scale(0.015625)"/>
        <path id="HelveticaNeue-52" d="M 499 4570 
L 499 0 
L 1107 0 
L 1107 1952 
L 2592 1952 
Q 2816 1952 2950 1885 
Q 3085 1818 3168 1706 
Q 3251 1594 3289 1443 
Q 3328 1293 3354 1126 
Q 3386 960 3392 787 
Q 3398 614 3404 464 
Q 3411 314 3433 192 
Q 3456 70 3520 0 
L 4198 0 
Q 4102 115 4054 265 
Q 4006 416 3980 582 
Q 3955 749 3948 921 
Q 3942 1094 3930 1261 
Q 3910 1427 3875 1580 
Q 3840 1734 3766 1859 
Q 3693 1984 3568 2073 
Q 3443 2163 3245 2202 
L 3245 2214 
Q 3661 2330 3849 2643 
Q 4038 2957 4038 3373 
Q 4038 3930 3670 4250 
Q 3302 4570 2650 4570 
L 499 4570 
z
M 2374 2464 
L 1107 2464 
L 1107 4058 
L 2618 4058 
Q 3046 4058 3238 3840 
Q 3430 3622 3430 3277 
Q 3430 3027 3344 2870 
Q 3258 2714 3114 2621 
Q 2970 2528 2778 2496 
Q 2586 2464 2374 2464 
z
" transform="scale(0.015625)"/>
        <path id="HelveticaNeue-54" d="M 1536 4058 
L 1536 0 
L 2144 0 
L 2144 4058 
L 3667 4058 
L 3667 4570 
L 13 4570 
L 13 4058 
L 1536 4058 
z
" transform="scale(0.015625)"/>
       </defs>
       <use xlink:href="#HelveticaNeue-41"/>
       <use xlink:href="#HelveticaNeue-51" transform="translate(64.799988 0)"/>
       <use xlink:href="#HelveticaNeue-75" transform="translate(140.799973 0)"/>
       <use xlink:href="#HelveticaNeue-41" transform="translate(196.399963 0)"/>
       <use xlink:href="#HelveticaNeue-2d" transform="translate(261.199951 0)"/>
       <use xlink:href="#HelveticaNeue-52" transform="translate(300.099945 0)"/>
       <use xlink:href="#HelveticaNeue-41" transform="translate(368.59993 0)"/>
       <use xlink:href="#HelveticaNeue-54" transform="translate(424.149918 0)"/>
      </g>
      <!-- n = 400 -->
      <g style="fill: #4a4f57" transform="translate(236.393661 268.335781) scale(0.095 -0.095)">
       <use xlink:href="#HelveticaNeue-6e"/>
       <use xlink:href="#HelveticaNeue-20" transform="translate(55.599991 0)"/>
       <use xlink:href="#HelveticaNeue-3d" transform="translate(83.399979 0)"/>
       <use xlink:href="#HelveticaNeue-20" transform="translate(143.399963 0)"/>
       <use xlink:href="#HelveticaNeue-34" transform="translate(171.199951 0)"/>
       <use xlink:href="#HelveticaNeue-30" transform="translate(226.799942 0)"/>
       <use xlink:href="#HelveticaNeue-30" transform="translate(282.399933 0)"/>
      </g>
     </g>
    </g>
    <g id="xtick_3">
     <g id="line2d_3"/>
     <g id="text_3">
      <!-- MMLU-Pro -->
      <g style="fill: #4a4f57" transform="translate(360.823175 256.966953) scale(0.095 -0.095)">
       <defs>
        <path id="HelveticaNeue-4c" d="M 499 4570 
L 499 0 
L 3526 0 
L 3526 512 
L 1107 512 
L 1107 4570 
L 499 4570 
z
" transform="scale(0.015625)"/>
        <path id="HelveticaNeue-55" d="M 4147 1651 
L 4147 4570 
L 3539 4570 
L 3539 1651 
Q 3539 1037 3235 720 
Q 2931 403 2349 403 
Q 1734 403 1408 720 
Q 1082 1037 1082 1651 
L 1082 4570 
L 474 4570 
L 474 1651 
Q 474 736 970 317 
Q 1466 -102 2349 -102 
Q 3213 -102 3680 336 
Q 4147 774 4147 1651 
z
" transform="scale(0.015625)"/>
        <path id="HelveticaNeue-50" d="M 1107 2381 
L 1107 4058 
L 2298 4058 
Q 2816 4058 3056 3843 
Q 3296 3629 3296 3219 
Q 3296 2810 3056 2592 
Q 2816 2374 2298 2381 
L 1107 2381 
z
M 499 4570 
L 499 0 
L 1107 0 
L 1107 1869 
L 2502 1869 
Q 3194 1862 3549 2220 
Q 3904 2579 3904 3219 
Q 3904 3859 3549 4214 
Q 3194 4570 2502 4570 
L 499 4570 
z
" transform="scale(0.015625)"/>
        <path id="HelveticaNeue-72" d="M 390 3309 
L 390 0 
L 934 0 
L 934 1472 
Q 934 1792 998 2038 
Q 1062 2285 1203 2457 
Q 1344 2630 1574 2720 
Q 1805 2810 2131 2810 
L 2131 3386 
Q 1690 3398 1402 3206 
Q 1114 3014 915 2611 
L 902 2611 
L 902 3309 
L 390 3309 
z
" transform="scale(0.015625)"/>
        <path id="HelveticaNeue-6f" d="M 806 1651 
Q 806 1952 886 2185 
Q 966 2419 1107 2579 
Q 1248 2739 1437 2822 
Q 1626 2906 1837 2906 
Q 2048 2906 2237 2822 
Q 2426 2739 2566 2579 
Q 2707 2419 2787 2185 
Q 2867 1952 2867 1651 
Q 2867 1350 2787 1116 
Q 2707 883 2566 726 
Q 2426 570 2237 486 
Q 2048 403 1837 403 
Q 1626 403 1437 486 
Q 1248 570 1107 726 
Q 966 883 886 1116 
Q 806 1350 806 1651 
z
M 230 1651 
Q 230 1286 332 972 
Q 435 659 640 425 
Q 845 192 1145 61 
Q 1446 -70 1837 -70 
Q 2234 -70 2531 61 
Q 2829 192 3033 425 
Q 3238 659 3340 972 
Q 3443 1286 3443 1651 
Q 3443 2016 3340 2333 
Q 3238 2650 3033 2883 
Q 2829 3117 2531 3251 
Q 2234 3386 1837 3386 
Q 1446 3386 1145 3251 
Q 845 3117 640 2883 
Q 435 2650 332 2333 
Q 230 2016 230 1651 
z
" transform="scale(0.015625)"/>
       </defs>
       <use xlink:href="#HelveticaNeue-4d"/>
       <use xlink:href="#HelveticaNeue-4d" transform="translate(87.099991 0)"/>
       <use xlink:href="#HelveticaNeue-4c" transform="translate(174.199982 0)"/>
       <use xlink:href="#HelveticaNeue-55" transform="translate(229.799973 0)"/>
       <use xlink:href="#HelveticaNeue-2d" transform="translate(301.999954 0)"/>
       <use xlink:href="#HelveticaNeue-50" transform="translate(340.899948 0)"/>
       <use xlink:href="#HelveticaNeue-72" transform="translate(405.699936 0)"/>
       <use xlink:href="#HelveticaNeue-6f" transform="translate(437.249924 0)"/>
      </g>
      <!-- n = 400 -->
      <g style="fill: #4a4f57" transform="translate(368.265089 268.335781) scale(0.095 -0.095)">
       <use xlink:href="#HelveticaNeue-6e"/>
       <use xlink:href="#HelveticaNeue-20" transform="translate(55.599991 0)"/>
       <use xlink:href="#HelveticaNeue-3d" transform="translate(83.399979 0)"/>
       <use xlink:href="#HelveticaNeue-20" transform="translate(143.399963 0)"/>
       <use xlink:href="#HelveticaNeue-34" transform="translate(171.199951 0)"/>
       <use xlink:href="#HelveticaNeue-30" transform="translate(226.799942 0)"/>
       <use xlink:href="#HelveticaNeue-30" transform="translate(282.399933 0)"/>
      </g>
     </g>
    </g>
    <g id="xtick_4">
     <g id="line2d_4"/>
     <g id="text_4">
      <!-- GPQA -->
      <g style="fill: #4a4f57" transform="translate(502.818783 256.966953) scale(0.095 -0.095)">
       <defs>
        <path id="HelveticaNeue-47" d="M 3917 570 
L 4077 0 
L 4461 0 
L 4461 2406 
L 2458 2406 
L 2458 1894 
L 3917 1894 
Q 3930 1581 3834 1309 
Q 3738 1037 3549 835 
Q 3360 634 3085 518 
Q 2810 403 2451 403 
Q 2067 403 1776 553 
Q 1485 704 1286 957 
Q 1088 1210 985 1539 
Q 883 1869 883 2227 
Q 883 2592 972 2941 
Q 1062 3290 1251 3562 
Q 1440 3834 1737 4000 
Q 2035 4166 2451 4166 
Q 2707 4166 2934 4105 
Q 3162 4045 3341 3923 
Q 3520 3802 3641 3613 
Q 3763 3424 3808 3162 
L 4416 3162 
Q 4352 3565 4176 3849 
Q 4000 4134 3741 4320 
Q 3482 4506 3152 4592 
Q 2822 4678 2451 4678 
Q 1907 4678 1500 4476 
Q 1094 4275 822 3936 
Q 550 3597 412 3145 
Q 275 2694 275 2195 
Q 275 1747 422 1331 
Q 570 915 851 595 
Q 1133 275 1536 86 
Q 1939 -102 2451 -102 
Q 2854 -102 3251 54 
Q 3648 211 3917 570 
z
" transform="scale(0.015625)"/>
       </defs>
       <use xlink:href="#HelveticaNeue-47"/>
       <use xlink:href="#HelveticaNeue-50" transform="translate(75.899994 0)"/>
       <use xlink:href="#HelveticaNeue-51" transform="translate(140.699982 0)"/>
       <use xlink:href="#HelveticaNeue-41" transform="translate(216.699966 0)"/>
      </g>
      <!-- n = 200 -->
      <g style="fill: #4a4f57" transform="translate(500.136518 268.335781) scale(0.095 -0.095)">
       <defs>
        <path id="HelveticaNeue-32" d="M 282 2931 
L 826 2931 
Q 819 3136 867 3337 
Q 915 3539 1024 3699 
Q 1133 3859 1302 3958 
Q 1472 4058 1709 4058 
Q 1888 4058 2048 4000 
Q 2208 3942 2326 3833 
Q 2445 3725 2515 3574 
Q 2586 3424 2586 3238 
Q 2586 3002 2512 2822 
Q 2438 2643 2294 2489 
Q 2150 2336 1932 2185 
Q 1715 2035 1427 1856 
Q 1190 1715 972 1555 
Q 755 1395 582 1184 
Q 410 973 298 688 
Q 186 403 154 0 
L 3117 0 
L 3117 480 
L 787 480 
Q 826 691 950 854 
Q 1075 1018 1251 1158 
Q 1427 1299 1638 1424 
Q 1850 1549 2061 1677 
Q 2272 1811 2470 1958 
Q 2669 2106 2822 2288 
Q 2976 2470 3069 2700 
Q 3162 2931 3162 3232 
Q 3162 3552 3050 3795 
Q 2938 4038 2746 4201 
Q 2554 4365 2294 4451 
Q 2035 4538 1741 4538 
Q 1382 4538 1100 4416 
Q 819 4294 630 4080 
Q 442 3866 352 3571 
Q 262 3277 282 2931 
z
" transform="scale(0.015625)"/>
       </defs>
       <use xlink:href="#HelveticaNeue-6e"/>
       <use xlink:href="#HelveticaNeue-20" transform="translate(55.599991 0)"/>
       <use xlink:href="#HelveticaNeue-3d" transform="translate(83.399979 0)"/>
       <use xlink:href="#HelveticaNeue-20" transform="translate(143.399963 0)"/>
       <use xlink:href="#HelveticaNeue-32" transform="translate(171.199951 0)"/>
       <use xlink:href="#HelveticaNeue-30" transform="translate(226.799942 0)"/>
       <use xlink:href="#HelveticaNeue-30" transform="translate(282.399933 0)"/>
      </g>
     </g>
    </g>
   </g>
   <g id="matplotlib.axis_2">
    <g id="ytick_1">
     <g id="line2d_5">
      <path d="M 41.452891 244.183359 
L 595.312891 244.183359 
" clip-path="url(#p7d4ee95dd8)" style="fill: none; stroke: #eef0f3; stroke-width: 0.8; stroke-linecap: square"/>
     </g>
     <g id="line2d_6"/>
     <g id="text_5">
      <!-- 0 -->
      <g style="fill: #4a4f57" transform="translate(30.171484 247.575156) scale(0.095 -0.095)">
       <use xlink:href="#HelveticaNeue-30"/>
      </g>
     </g>
    </g>
    <g id="ytick_2">
     <g id="line2d_7">
      <path d="M 41.452891 206.959359 
L 595.312891 206.959359 
" clip-path="url(#p7d4ee95dd8)" style="fill: none; stroke: #eef0f3; stroke-width: 0.8; stroke-linecap: square"/>
     </g>
     <g id="line2d_8"/>
     <g id="text_6">
      <!-- 20 -->
      <g style="fill: #4a4f57" transform="translate(24.890078 210.351156) scale(0.095 -0.095)">
       <use xlink:href="#HelveticaNeue-32"/>
       <use xlink:href="#HelveticaNeue-30" transform="translate(55.599991 0)"/>
      </g>
     </g>
    </g>
    <g id="ytick_3">
     <g id="line2d_9">
      <path d="M 41.452891 169.735359 
L 595.312891 169.735359 
" clip-path="url(#p7d4ee95dd8)" style="fill: none; stroke: #eef0f3; stroke-width: 0.8; stroke-linecap: square"/>
     </g>
     <g id="line2d_10"/>
     <g id="text_7">
      <!-- 40 -->
      <g style="fill: #4a4f57" transform="translate(24.890078 173.127156) scale(0.095 -0.095)">
       <use xlink:href="#HelveticaNeue-34"/>
       <use xlink:href="#HelveticaNeue-30" transform="translate(55.599991 0)"/>
      </g>
     </g>
    </g>
    <g id="ytick_4">
     <g id="line2d_11">
      <path d="M 41.452891 132.511359 
L 595.312891 132.511359 
" clip-path="url(#p7d4ee95dd8)" style="fill: none; stroke: #eef0f3; stroke-width: 0.8; stroke-linecap: square"/>
     </g>
     <g id="line2d_12"/>
     <g id="text_8">
      <!-- 60 -->
      <g style="fill: #4a4f57" transform="translate(24.890078 135.903156) scale(0.095 -0.095)">
       <defs>
        <path id="HelveticaNeue-36" d="M 2650 3379 
L 3194 3379 
Q 3142 3942 2809 4240 
Q 2477 4538 1914 4538 
Q 1427 4538 1107 4333 
Q 787 4128 595 3789 
Q 403 3450 323 3011 
Q 243 2573 243 2106 
Q 243 1747 297 1363 
Q 352 979 518 659 
Q 685 339 992 134 
Q 1299 -70 1805 -70 
Q 2234 -70 2525 74 
Q 2816 218 2992 438 
Q 3168 659 3245 928 
Q 3322 1197 3322 1446 
Q 3322 1760 3226 2029 
Q 3130 2298 2954 2496 
Q 2778 2694 2518 2806 
Q 2259 2918 1933 2918 
Q 1562 2918 1277 2777 
Q 992 2637 800 2323 
L 787 2336 
Q 794 2598 838 2899 
Q 883 3200 1001 3459 
Q 1120 3718 1331 3888 
Q 1542 4058 1888 4058 
Q 2214 4058 2412 3872 
Q 2611 3686 2650 3379 
z
M 1830 2438 
Q 2061 2438 2233 2355 
Q 2406 2272 2521 2134 
Q 2637 1997 2691 1808 
Q 2746 1619 2746 1408 
Q 2746 1210 2685 1027 
Q 2624 845 2509 704 
Q 2394 563 2224 483 
Q 2054 403 1830 403 
Q 1606 403 1430 483 
Q 1254 563 1136 697 
Q 1018 832 954 1017 
Q 890 1203 890 1414 
Q 890 1626 950 1814 
Q 1011 2003 1132 2140 
Q 1254 2278 1427 2358 
Q 1600 2438 1830 2438 
z
" transform="scale(0.015625)"/>
       </defs>
       <use xlink:href="#HelveticaNeue-36"/>
       <use xlink:href="#HelveticaNeue-30" transform="translate(55.599991 0)"/>
      </g>
     </g>
    </g>
    <g id="ytick_5">
     <g id="line2d_13">
      <path d="M 41.452891 95.287359 
L 595.312891 95.287359 
" clip-path="url(#p7d4ee95dd8)" style="fill: none; stroke: #eef0f3; stroke-width: 0.8; stroke-linecap: square"/>
     </g>
     <g id="line2d_14"/>
     <g id="text_9">
      <!-- 80 -->
      <g style="fill: #4a4f57" transform="translate(24.890078 98.679156) scale(0.095 -0.095)">
       <defs>
        <path id="HelveticaNeue-38" d="M 992 3360 
Q 992 3533 1056 3661 
Q 1120 3789 1225 3878 
Q 1331 3968 1478 4013 
Q 1626 4058 1786 4058 
Q 2118 4058 2332 3882 
Q 2547 3706 2547 3360 
Q 2547 3014 2336 2822 
Q 2125 2630 1798 2630 
Q 1632 2630 1485 2675 
Q 1338 2720 1229 2809 
Q 1120 2899 1056 3036 
Q 992 3174 992 3360 
z
M 416 3379 
Q 416 3072 589 2813 
Q 762 2554 1050 2438 
Q 666 2304 461 2006 
Q 256 1709 256 1306 
Q 256 960 374 701 
Q 493 442 701 269 
Q 909 96 1190 13 
Q 1472 -70 1798 -70 
Q 2112 -70 2387 19 
Q 2662 109 2864 285 
Q 3066 461 3184 717 
Q 3302 973 3302 1306 
Q 3302 1728 3104 2019 
Q 2906 2310 2496 2438 
Q 2784 2566 2953 2819 
Q 3123 3072 3123 3379 
Q 3123 3597 3046 3805 
Q 2970 4013 2806 4176 
Q 2643 4339 2380 4438 
Q 2118 4538 1747 4538 
Q 1485 4538 1245 4461 
Q 1005 4384 819 4237 
Q 634 4090 525 3875 
Q 416 3661 416 3379 
z
M 832 1280 
Q 832 1478 905 1638 
Q 979 1798 1110 1913 
Q 1242 2029 1418 2089 
Q 1594 2150 1792 2150 
Q 1984 2150 2153 2083 
Q 2323 2016 2451 1901 
Q 2579 1786 2652 1629 
Q 2726 1472 2726 1286 
Q 2726 1094 2659 934 
Q 2592 774 2467 656 
Q 2342 538 2172 470 
Q 2003 403 1798 403 
Q 1376 403 1104 636 
Q 832 870 832 1280 
z
" transform="scale(0.015625)"/>
       </defs>
       <use xlink:href="#HelveticaNeue-38"/>
       <use xlink:href="#HelveticaNeue-30" transform="translate(55.599991 0)"/>
      </g>
     </g>
    </g>
    <g id="ytick_6">
     <g id="line2d_15">
      <path d="M 41.452891 58.063359 
L 595.312891 58.063359 
" clip-path="url(#p7d4ee95dd8)" style="fill: none; stroke: #eef0f3; stroke-width: 0.8; stroke-linecap: square"/>
     </g>
     <g id="line2d_16"/>
     <g id="text_10">
      <!-- 100 -->
      <g style="fill: #4a4f57" transform="translate(19.608672 61.455156) scale(0.095 -0.095)">
       <defs>
        <path id="HelveticaNeue-31" d="M 2278 0 
L 2278 4538 
L 1862 4538 
Q 1818 4282 1696 4115 
Q 1574 3949 1398 3853 
Q 1222 3757 1004 3721 
Q 787 3686 557 3686 
L 557 3251 
L 1734 3251 
L 1734 0 
L 2278 0 
z
" transform="scale(0.015625)"/>
       </defs>
       <use xlink:href="#HelveticaNeue-31"/>
       <use xlink:href="#HelveticaNeue-30" transform="translate(55.599991 0)"/>
       <use xlink:href="#HelveticaNeue-30" transform="translate(111.199982 0)"/>
      </g>
     </g>
    </g>
    <g id="text_11">
     <!-- Measured oracle accuracy (%) -->
     <g style="fill: #4a4f57" transform="translate(13.434844 222.589805) rotate(-90) scale(0.105 -0.105)">
      <defs>
       <path id="HelveticaNeue-61" d="M 3341 13 
Q 3200 -70 2950 -70 
Q 2739 -70 2614 48 
Q 2490 166 2490 435 
Q 2266 166 1968 48 
Q 1670 -70 1325 -70 
Q 1101 -70 899 -19 
Q 698 32 550 141 
Q 403 250 316 426 
Q 230 602 230 851 
Q 230 1133 326 1312 
Q 422 1491 579 1603 
Q 736 1715 937 1772 
Q 1139 1830 1350 1869 
Q 1574 1914 1776 1936 
Q 1978 1958 2131 2000 
Q 2285 2042 2374 2122 
Q 2464 2202 2464 2355 
Q 2464 2534 2397 2643 
Q 2330 2752 2224 2809 
Q 2118 2867 1987 2886 
Q 1856 2906 1728 2906 
Q 1382 2906 1152 2774 
Q 922 2643 902 2278 
L 358 2278 
Q 371 2586 486 2797 
Q 602 3008 794 3139 
Q 986 3270 1232 3328 
Q 1478 3386 1760 3386 
Q 1984 3386 2205 3354 
Q 2426 3322 2605 3222 
Q 2784 3123 2893 2944 
Q 3002 2765 3002 2477 
L 3002 774 
Q 3002 582 3024 492 
Q 3046 403 3174 403 
Q 3245 403 3341 435 
L 3341 13 
z
M 2458 1709 
Q 2355 1632 2188 1597 
Q 2022 1562 1840 1539 
Q 1658 1517 1472 1488 
Q 1286 1459 1139 1395 
Q 992 1331 899 1212 
Q 806 1094 806 890 
Q 806 755 860 662 
Q 915 570 1001 512 
Q 1088 454 1203 428 
Q 1318 403 1446 403 
Q 1715 403 1907 476 
Q 2099 550 2220 662 
Q 2342 774 2400 905 
Q 2458 1037 2458 1152 
L 2458 1709 
z
" transform="scale(0.015625)"/>
       <path id="HelveticaNeue-73" d="M 742 1043 
L 198 1043 
Q 211 736 326 521 
Q 442 307 634 176 
Q 826 45 1075 -12 
Q 1325 -70 1600 -70 
Q 1850 -70 2102 -22 
Q 2355 26 2556 147 
Q 2758 269 2883 467 
Q 3008 666 3008 966 
Q 3008 1203 2915 1363 
Q 2822 1523 2672 1628 
Q 2522 1734 2326 1798 
Q 2131 1862 1926 1907 
Q 1734 1952 1542 1993 
Q 1350 2035 1196 2096 
Q 1043 2157 944 2249 
Q 845 2342 845 2483 
Q 845 2611 909 2691 
Q 973 2771 1075 2819 
Q 1178 2867 1302 2886 
Q 1427 2906 1549 2906 
Q 1683 2906 1814 2877 
Q 1946 2848 2054 2784 
Q 2163 2720 2233 2614 
Q 2304 2509 2317 2349 
L 2861 2349 
Q 2842 2650 2733 2851 
Q 2624 3053 2441 3171 
Q 2259 3290 2022 3338 
Q 1786 3386 1504 3386 
Q 1286 3386 1065 3331 
Q 845 3277 669 3165 
Q 493 3053 381 2873 
Q 269 2694 269 2445 
Q 269 2125 429 1945 
Q 589 1766 829 1667 
Q 1069 1568 1350 1513 
Q 1632 1459 1872 1392 
Q 2112 1325 2272 1216 
Q 2432 1107 2432 896 
Q 2432 742 2355 643 
Q 2278 544 2160 493 
Q 2042 442 1901 422 
Q 1760 403 1632 403 
Q 1466 403 1309 435 
Q 1152 467 1027 540 
Q 902 614 825 739 
Q 749 864 742 1043 
z
" transform="scale(0.015625)"/>
       <path id="HelveticaNeue-63" d="M 2656 2246 
L 3219 2246 
Q 3187 2541 3065 2755 
Q 2944 2970 2755 3110 
Q 2566 3251 2320 3318 
Q 2074 3386 1792 3386 
Q 1402 3386 1107 3248 
Q 813 3110 617 2870 
Q 422 2630 326 2307 
Q 230 1984 230 1613 
Q 230 1242 329 931 
Q 429 621 624 397 
Q 819 173 1110 51 
Q 1402 -70 1779 -70 
Q 2413 -70 2781 262 
Q 3149 595 3238 1210 
L 2682 1210 
Q 2630 826 2403 614 
Q 2176 403 1773 403 
Q 1517 403 1331 505 
Q 1146 608 1030 777 
Q 915 947 860 1164 
Q 806 1382 806 1613 
Q 806 1862 857 2096 
Q 909 2330 1027 2509 
Q 1146 2688 1344 2797 
Q 1542 2906 1837 2906 
Q 2182 2906 2387 2733 
Q 2592 2560 2656 2246 
z
" transform="scale(0.015625)"/>
       <path id="HelveticaNeue-6c" d="M 442 4570 
L 442 0 
L 986 0 
L 986 4570 
L 442 4570 
z
" transform="scale(0.015625)"/>
       <path id="HelveticaNeue-79" d="M 1709 -442 
Q 1613 -685 1520 -851 
Q 1427 -1018 1315 -1123 
Q 1203 -1229 1065 -1277 
Q 928 -1325 749 -1325 
Q 653 -1325 557 -1312 
Q 461 -1299 371 -1267 
L 371 -768 
Q 442 -800 534 -822 
Q 627 -845 691 -845 
Q 858 -845 970 -765 
Q 1082 -685 1139 -538 
L 1363 19 
L 51 3309 
L 666 3309 
L 1632 602 
L 1645 602 
L 2573 3309 
L 3149 3309 
L 1709 -442 
z
" transform="scale(0.015625)"/>
       <path id="HelveticaNeue-28" d="M 1306 -1261 
L 1722 -1261 
Q 1267 -525 1072 198 
Q 877 922 877 1728 
Q 877 2515 1069 3232 
Q 1261 3949 1722 4678 
L 1306 4678 
Q 806 4019 553 3251 
Q 301 2483 301 1728 
Q 301 1306 371 922 
Q 442 538 573 173 
Q 704 -192 889 -547 
Q 1075 -902 1306 -1261 
z
" transform="scale(0.015625)"/>
       <path id="HelveticaNeue-25" d="M 1069 3251 
Q 1069 3398 1088 3561 
Q 1107 3725 1168 3862 
Q 1229 4000 1337 4093 
Q 1446 4186 1626 4186 
Q 1811 4186 1916 4093 
Q 2022 4000 2080 3862 
Q 2138 3725 2154 3561 
Q 2170 3398 2170 3258 
Q 2170 3110 2150 2944 
Q 2131 2778 2070 2640 
Q 2010 2502 1901 2412 
Q 1792 2323 1606 2323 
Q 1427 2323 1321 2416 
Q 1216 2509 1158 2646 
Q 1101 2784 1085 2947 
Q 1069 3110 1069 3251 
z
M 589 3238 
Q 589 2976 643 2745 
Q 698 2515 819 2342 
Q 941 2170 1139 2070 
Q 1338 1971 1626 1971 
Q 1907 1971 2099 2080 
Q 2291 2189 2416 2365 
Q 2541 2541 2595 2774 
Q 2650 3008 2650 3258 
Q 2650 3520 2602 3753 
Q 2554 3987 2435 4160 
Q 2317 4333 2121 4435 
Q 1926 4538 1626 4538 
Q 1331 4538 1132 4432 
Q 934 4326 812 4147 
Q 691 3968 640 3734 
Q 589 3501 589 3238 
z
M 4230 1203 
Q 4230 1350 4249 1513 
Q 4269 1677 4329 1814 
Q 4390 1952 4499 2045 
Q 4608 2138 4787 2138 
Q 4973 2138 5078 2045 
Q 5184 1952 5241 1814 
Q 5299 1677 5315 1513 
Q 5331 1350 5331 1210 
Q 5331 1062 5312 896 
Q 5293 730 5232 592 
Q 5171 454 5062 364 
Q 4954 275 4768 275 
Q 4589 275 4483 368 
Q 4378 461 4320 598 
Q 4262 736 4246 899 
Q 4230 1062 4230 1203 
z
M 3750 1190 
Q 3750 928 3804 697 
Q 3859 467 3980 297 
Q 4102 128 4300 29 
Q 4499 -70 4787 -70 
Q 5069 -70 5261 35 
Q 5453 141 5577 317 
Q 5702 493 5756 726 
Q 5811 960 5811 1210 
Q 5811 1472 5763 1705 
Q 5715 1939 5596 2112 
Q 5478 2285 5283 2387 
Q 5088 2490 4787 2490 
Q 4493 2490 4294 2384 
Q 4096 2278 3974 2099 
Q 3853 1920 3801 1686 
Q 3750 1453 3750 1190 
z
M 4646 4621 
L 1203 -134 
L 1754 -134 
L 5190 4621 
L 4646 4621 
z
" transform="scale(0.015625)"/>
       <path id="HelveticaNeue-29" d="M -58 -1261 
L 352 -1261 
Q 851 -602 1104 163 
Q 1357 928 1357 1683 
Q 1357 2106 1286 2490 
Q 1216 2874 1085 3242 
Q 954 3610 768 3965 
Q 582 4320 352 4678 
L -58 4678 
Q 390 3942 585 3216 
Q 781 2490 781 1683 
Q 781 902 589 182 
Q 397 -538 -58 -1261 
z
" transform="scale(0.015625)"/>
      </defs>
      <use xlink:href="#HelveticaNeue-4d"/>
      <use xlink:href="#HelveticaNeue-65" transform="translate(87.099991 0)"/>
      <use xlink:href="#HelveticaNeue-61" transform="translate(140.799988 0)"/>
      <use xlink:href="#HelveticaNeue-73" transform="translate(194.499985 0)"/>
      <use xlink:href="#HelveticaNeue-75" transform="translate(244.499969 0)"/>
      <use xlink:href="#HelveticaNeue-72" transform="translate(300.09996 0)"/>
      <use xlink:href="#HelveticaNeue-65" transform="translate(331.649948 0)"/>
      <use xlink:href="#HelveticaNeue-64" transform="translate(385.349945 0)"/>
      <use xlink:href="#HelveticaNeue-20" transform="translate(444.649933 0)"/>
      <use xlink:href="#HelveticaNeue-6f" transform="translate(472.449921 0)"/>
      <use xlink:href="#HelveticaNeue-72" transform="translate(529.849915 0)"/>
      <use xlink:href="#HelveticaNeue-61" transform="translate(563.149902 0)"/>
      <use xlink:href="#HelveticaNeue-63" transform="translate(616.849899 0)"/>
      <use xlink:href="#HelveticaNeue-6c" transform="translate(670.549896 0)"/>
      <use xlink:href="#HelveticaNeue-65" transform="translate(692.749893 0)"/>
      <use xlink:href="#HelveticaNeue-20" transform="translate(746.44989 0)"/>
      <use xlink:href="#HelveticaNeue-61" transform="translate(774.249878 0)"/>
      <use xlink:href="#HelveticaNeue-63" transform="translate(827.949875 0)"/>
      <use xlink:href="#HelveticaNeue-63" transform="translate(881.649872 0)"/>
      <use xlink:href="#HelveticaNeue-75" transform="translate(935.349869 0)"/>
      <use xlink:href="#HelveticaNeue-72" transform="translate(990.94986 0)"/>
      <use xlink:href="#HelveticaNeue-61" transform="translate(1024.249847 0)"/>
      <use xlink:href="#HelveticaNeue-63" transform="translate(1077.949844 0)"/>
      <use xlink:href="#HelveticaNeue-79" transform="translate(1131.649841 0)"/>
      <use xlink:href="#HelveticaNeue-20" transform="translate(1181.649826 0)"/>
      <use xlink:href="#HelveticaNeue-28" transform="translate(1209.449814 0)"/>
      <use xlink:href="#HelveticaNeue-25" transform="translate(1235.349808 0)"/>
      <use xlink:href="#HelveticaNeue-29" transform="translate(1335.349792 0)"/>
     </g>
    </g>
   </g>
   <g id="patch_3">
    <path d="M 68.486533 244.183359 
L 101.454391 244.183359 
L 101.454391 102.732159 
L 68.486533 102.732159 
z
" clip-path="url(#p7d4ee95dd8)" style="fill: #c9ced6"/>
   </g>
   <g id="patch_4">
    <path d="M 200.357962 244.183359 
L 233.325819 244.183359 
L 233.325819 143.213259 
L 200.357962 143.213259 
z
" clip-path="url(#p7d4ee95dd8)" style="fill: #c9ced6"/>
   </g>
   <g id="patch_5">
    <path d="M 332.229391 244.183359 
L 365.197248 244.183359 
L 365.197248 145.074459 
L 332.229391 145.074459 
z
" clip-path="url(#p7d4ee95dd8)" style="fill: #c9ced6"/>
   </g>
   <g id="patch_6">
    <path d="M 464.100819 244.183359 
L 497.068676 244.183359 
L 497.068676 164.151759 
L 464.100819 164.151759 
z
" clip-path="url(#p7d4ee95dd8)" style="fill: #c9ced6"/>
   </g>
   <g id="patch_7">
    <path d="M 104.091819 244.183359 
L 137.059676 244.183359 
L 137.059676 73.418259 
L 104.091819 73.418259 
z
" clip-path="url(#p7d4ee95dd8)" style="fill: #737a84"/>
   </g>
   <g id="patch_8">
    <path d="M 235.963248 244.183359 
L 268.931105 244.183359 
L 268.931105 84.585459 
L 235.963248 84.585459 
z
" clip-path="url(#p7d4ee95dd8)" style="fill: #737a84"/>
   </g>
   <g id="patch_9">
    <path d="M 367.834676 244.183359 
L 400.802533 244.183359 
L 400.802533 110.642259 
L 367.834676 110.642259 
z
" clip-path="url(#p7d4ee95dd8)" style="fill: #737a84"/>
   </g>
   <g id="patch_10">
    <path d="M 499.706105 244.183359 
L 532.673962 244.183359 
L 532.673962 123.205359 
L 499.706105 123.205359 
z
" clip-path="url(#p7d4ee95dd8)" style="fill: #737a84"/>
   </g>
   <g id="patch_11">
    <path d="M 139.697105 244.183359 
L 172.664962 244.183359 
L 172.664962 72.487659 
L 139.697105 72.487659 
z
" clip-path="url(#p7d4ee95dd8)" style="fill: #4a4f57"/>
   </g>
   <g id="patch_12">
    <path d="M 271.568533 244.183359 
L 304.536391 244.183359 
L 304.536391 81.793659 
L 271.568533 81.793659 
z
" clip-path="url(#p7d4ee95dd8)" style="fill: #4a4f57"/>
   </g>
   <g id="patch_13">
    <path d="M 403.439962 244.183359 
L 436.407819 244.183359 
L 436.407819 107.385159 
L 403.439962 107.385159 
z
" clip-path="url(#p7d4ee95dd8)" style="fill: #4a4f57"/>
   </g>
   <g id="patch_14">
    <path d="M 535.311391 244.183359 
L 568.279248 244.183359 
L 568.279248 114.829959 
L 535.311391 114.829959 
z
" clip-path="url(#p7d4ee95dd8)" style="fill: #4a4f57"/>
   </g>
   <g id="patch_15">
    <path d="M 41.452891 244.183359 
L 41.452891 58.063359 
" style="fill: none; stroke: #e6e8ec; stroke-width: 0.8; stroke-linejoin: miter; stroke-linecap: square"/>
   </g>
   <g id="patch_16">
    <path d="M 41.452891 244.183359 
L 595.312891 244.183359 
" style="fill: none; stroke: #e6e8ec; stroke-width: 0.8; stroke-linejoin: miter; stroke-linecap: square"/>
   </g>
   <g id="text_12">
    <!-- Gain@1 96.9% -->
    <g style="fill: #2e3238" transform="translate(87.306998 53.301247) scale(0.1 -0.1)">
     <defs>
      <path id="HelveticaNeue-69" d="M 986 3904 
L 986 4570 
L 442 4570 
L 442 3904 
L 986 3904 
z
M 442 3309 
L 442 0 
L 986 0 
L 986 3309 
L 442 3309 
z
" transform="scale(0.015625)"/>
      <path id="HelveticaNeue-40" d="M 3418 1728 
L 3955 3546 
L 3552 3546 
L 3405 3142 
Q 3296 3430 3104 3548 
Q 2912 3667 2688 3667 
Q 2349 3667 2070 3507 
Q 1792 3347 1597 3091 
Q 1402 2835 1293 2508 
Q 1184 2182 1184 1850 
Q 1184 1638 1251 1452 
Q 1318 1267 1436 1132 
Q 1555 998 1724 918 
Q 1894 838 2099 838 
Q 2336 838 2541 969 
Q 2746 1101 2893 1267 
L 2912 1267 
Q 2925 1056 3040 953 
Q 3155 851 3322 851 
Q 3546 851 3808 985 
Q 4070 1120 4294 1363 
Q 4518 1606 4668 1948 
Q 4819 2291 4819 2707 
Q 4819 3142 4646 3504 
Q 4474 3866 4176 4125 
Q 3878 4384 3481 4531 
Q 3085 4678 2643 4678 
Q 2157 4678 1725 4492 
Q 1293 4307 969 3984 
Q 646 3661 457 3229 
Q 269 2797 269 2304 
Q 269 1792 454 1353 
Q 640 915 963 592 
Q 1286 269 1724 83 
Q 2163 -102 2669 -102 
Q 2976 -102 3270 -28 
Q 3565 45 3824 189 
Q 4083 333 4300 541 
Q 4518 749 4672 1018 
L 4269 1018 
Q 3994 666 3568 454 
Q 3142 243 2682 243 
Q 2278 243 1920 400 
Q 1562 557 1290 829 
Q 1018 1101 861 1472 
Q 704 1843 704 2272 
Q 704 2694 854 3065 
Q 1005 3437 1267 3718 
Q 1530 4000 1885 4163 
Q 2240 4326 2650 4326 
Q 2989 4326 3299 4211 
Q 3610 4096 3853 3881 
Q 4096 3667 4240 3360 
Q 4384 3053 4384 2675 
Q 4384 2419 4301 2156 
Q 4218 1894 4090 1683 
Q 3962 1472 3805 1337 
Q 3648 1203 3501 1203 
Q 3347 1203 3347 1402 
Q 3347 1472 3369 1558 
Q 3392 1645 3418 1728 
z
M 2688 3232 
Q 2790 3232 2883 3181 
Q 2976 3130 3049 3050 
Q 3123 2970 3164 2861 
Q 3206 2752 3206 2637 
Q 3206 2438 3129 2201 
Q 3053 1965 2918 1757 
Q 2784 1549 2605 1411 
Q 2426 1274 2214 1274 
Q 1971 1274 1817 1450 
Q 1664 1626 1664 1894 
Q 1664 2106 1741 2339 
Q 1818 2573 1952 2771 
Q 2086 2970 2275 3101 
Q 2464 3232 2688 3232 
z
" transform="scale(0.015625)"/>
      <path id="HelveticaNeue-39" d="M 858 1094 
L 314 1094 
Q 365 506 742 218 
Q 1120 -70 1690 -70 
Q 2515 -70 2889 560 
Q 3264 1190 3264 2368 
Q 3264 3014 3139 3433 
Q 3014 3853 2803 4096 
Q 2592 4339 2310 4438 
Q 2029 4538 1709 4538 
Q 1382 4538 1107 4429 
Q 832 4320 633 4125 
Q 435 3930 326 3658 
Q 218 3386 218 3059 
Q 218 2726 310 2444 
Q 403 2163 585 1964 
Q 768 1766 1037 1654 
Q 1306 1542 1651 1542 
Q 1984 1542 2265 1712 
Q 2547 1882 2701 2170 
L 2714 2157 
Q 2688 1267 2438 835 
Q 2189 403 1690 403 
Q 1363 403 1126 582 
Q 890 762 858 1094 
z
M 2618 3021 
Q 2618 2822 2554 2640 
Q 2490 2458 2368 2320 
Q 2246 2182 2073 2102 
Q 1901 2022 1690 2022 
Q 1491 2022 1328 2102 
Q 1165 2182 1046 2316 
Q 928 2451 861 2624 
Q 794 2797 794 2982 
Q 794 3194 842 3386 
Q 890 3578 995 3728 
Q 1101 3878 1270 3968 
Q 1440 4058 1683 4058 
Q 1914 4058 2086 3974 
Q 2259 3891 2377 3747 
Q 2496 3603 2557 3417 
Q 2618 3232 2618 3021 
z
" transform="scale(0.015625)"/>
      <path id="HelveticaNeue-2e" d="M 531 710 
L 531 0 
L 1242 0 
L 1242 710 
L 531 710 
z
" transform="scale(0.015625)"/>
     </defs>
     <use xlink:href="#HelveticaNeue-47"/>
     <use xlink:href="#HelveticaNeue-61" transform="translate(75.899994 0)"/>
     <use xlink:href="#HelveticaNeue-69" transform="translate(129.599991 0)"/>
     <use xlink:href="#HelveticaNeue-6e" transform="translate(151.799988 0)"/>
     <use xlink:href="#HelveticaNeue-40" transform="translate(207.399979 0)"/>
     <use xlink:href="#HelveticaNeue-31" transform="translate(287.399963 0)"/>
     <use xlink:href="#HelveticaNeue-20" transform="translate(342.999954 0)"/>
     <use xlink:href="#HelveticaNeue-39" transform="translate(370.799942 0)"/>
     <use xlink:href="#HelveticaNeue-36" transform="translate(426.399933 0)"/>
     <use xlink:href="#HelveticaNeue-2e" transform="translate(481.999924 0)"/>
     <use xlink:href="#HelveticaNeue-39" transform="translate(509.799911 0)"/>
     <use xlink:href="#HelveticaNeue-25" transform="translate(565.399902 0)"/>
    </g>
   </g>
   <g id="text_13">
    <!-- Gain@1 95.5% -->
    <g style="fill: #2e3238" transform="translate(219.178426 53.301247) scale(0.1 -0.1)">
     <defs>
      <path id="HelveticaNeue-35" d="M 3008 3981 
L 3008 4461 
L 768 4461 
L 346 2106 
L 813 2080 
Q 973 2272 1181 2390 
Q 1389 2509 1658 2509 
Q 1888 2509 2077 2432 
Q 2266 2355 2400 2217 
Q 2534 2080 2608 1891 
Q 2682 1702 2682 1478 
Q 2682 1210 2605 1008 
Q 2528 806 2397 672 
Q 2266 538 2090 470 
Q 1914 403 1722 403 
Q 1517 403 1347 464 
Q 1178 525 1053 637 
Q 928 749 854 899 
Q 781 1050 768 1222 
L 224 1222 
Q 230 915 345 672 
Q 461 429 659 265 
Q 858 102 1117 16 
Q 1376 -70 1670 -70 
Q 2067 -70 2364 54 
Q 2662 179 2860 390 
Q 3059 602 3158 874 
Q 3258 1146 3258 1434 
Q 3258 1824 3142 2115 
Q 3027 2406 2828 2601 
Q 2630 2797 2361 2893 
Q 2093 2989 1792 2989 
Q 1562 2989 1328 2909 
Q 1094 2829 947 2662 
L 934 2675 
L 1178 3981 
L 3008 3981 
z
" transform="scale(0.015625)"/>
     </defs>
     <use xlink:href="#HelveticaNeue-47"/>
     <use xlink:href="#HelveticaNeue-61" transform="translate(75.899994 0)"/>
     <use xlink:href="#HelveticaNeue-69" transform="translate(129.599991 0)"/>
     <use xlink:href="#HelveticaNeue-6e" transform="translate(151.799988 0)"/>
     <use xlink:href="#HelveticaNeue-40" transform="translate(207.399979 0)"/>
     <use xlink:href="#HelveticaNeue-31" transform="translate(287.399963 0)"/>
     <use xlink:href="#HelveticaNeue-20" transform="translate(342.999954 0)"/>
     <use xlink:href="#HelveticaNeue-39" transform="translate(370.799942 0)"/>
     <use xlink:href="#HelveticaNeue-35" transform="translate(426.399933 0)"/>
     <use xlink:href="#HelveticaNeue-2e" transform="translate(481.999924 0)"/>
     <use xlink:href="#HelveticaNeue-35" transform="translate(509.799911 0)"/>
     <use xlink:href="#HelveticaNeue-25" transform="translate(565.399902 0)"/>
    </g>
   </g>
   <g id="text_14">
    <!-- Gain@1 91.4% -->
    <g style="fill: #2e3238" transform="translate(351.049855 53.301247) scale(0.1 -0.1)">
     <use xlink:href="#HelveticaNeue-47"/>
     <use xlink:href="#HelveticaNeue-61" transform="translate(75.899994 0)"/>
     <use xlink:href="#HelveticaNeue-69" transform="translate(129.599991 0)"/>
     <use xlink:href="#HelveticaNeue-6e" transform="translate(151.799988 0)"/>
     <use xlink:href="#HelveticaNeue-40" transform="translate(207.399979 0)"/>
     <use xlink:href="#HelveticaNeue-31" transform="translate(287.399963 0)"/>
     <use xlink:href="#HelveticaNeue-20" transform="translate(342.999954 0)"/>
     <use xlink:href="#HelveticaNeue-39" transform="translate(370.799942 0)"/>
     <use xlink:href="#HelveticaNeue-31" transform="translate(426.399933 0)"/>
     <use xlink:href="#HelveticaNeue-2e" transform="translate(481.999924 0)"/>
     <use xlink:href="#HelveticaNeue-34" transform="translate(509.799911 0)"/>
     <use xlink:href="#HelveticaNeue-25" transform="translate(565.399902 0)"/>
    </g>
   </g>
   <g id="text_15">
    <!-- Gain@1 83.0% -->
    <g style="fill: #2e3238" transform="translate(482.921283 53.301247) scale(0.1 -0.1)">
     <defs>
      <path id="HelveticaNeue-33" d="M 1395 2592 
L 1395 2131 
Q 1549 2150 1722 2150 
Q 1926 2150 2102 2096 
Q 2278 2042 2406 1930 
Q 2534 1818 2611 1654 
Q 2688 1491 2688 1280 
Q 2688 1075 2608 912 
Q 2528 749 2393 637 
Q 2259 525 2080 464 
Q 1901 403 1702 403 
Q 1235 403 992 681 
Q 749 960 736 1402 
L 192 1402 
Q 186 1050 291 774 
Q 397 499 595 310 
Q 794 122 1075 26 
Q 1357 -70 1702 -70 
Q 2022 -70 2307 16 
Q 2592 102 2803 275 
Q 3014 448 3139 707 
Q 3264 966 3264 1306 
Q 3264 1715 3062 2016 
Q 2861 2317 2445 2406 
L 2445 2419 
Q 2714 2541 2893 2777 
Q 3072 3014 3072 3322 
Q 3072 3635 2966 3865 
Q 2861 4096 2675 4243 
Q 2490 4390 2237 4464 
Q 1984 4538 1690 4538 
Q 1350 4538 1091 4429 
Q 832 4320 659 4128 
Q 486 3936 393 3667 
Q 301 3398 288 3072 
L 832 3072 
Q 832 3270 883 3449 
Q 934 3629 1040 3763 
Q 1146 3898 1309 3978 
Q 1472 4058 1690 4058 
Q 2035 4058 2265 3875 
Q 2496 3693 2496 3328 
Q 2496 3149 2425 3008 
Q 2355 2867 2236 2774 
Q 2118 2682 1961 2634 
Q 1805 2586 1632 2586 
L 1517 2586 
Q 1485 2586 1453 2586 
Q 1427 2586 1395 2592 
z
" transform="scale(0.015625)"/>
     </defs>
     <use xlink:href="#HelveticaNeue-47"/>
     <use xlink:href="#HelveticaNeue-61" transform="translate(75.899994 0)"/>
     <use xlink:href="#HelveticaNeue-69" transform="translate(129.599991 0)"/>
     <use xlink:href="#HelveticaNeue-6e" transform="translate(151.799988 0)"/>
     <use xlink:href="#HelveticaNeue-40" transform="translate(207.399979 0)"/>
     <use xlink:href="#HelveticaNeue-31" transform="translate(287.399963 0)"/>
     <use xlink:href="#HelveticaNeue-20" transform="translate(342.999954 0)"/>
     <use xlink:href="#HelveticaNeue-38" transform="translate(370.799942 0)"/>
     <use xlink:href="#HelveticaNeue-33" transform="translate(426.399933 0)"/>
     <use xlink:href="#HelveticaNeue-2e" transform="translate(481.999924 0)"/>
     <use xlink:href="#HelveticaNeue-30" transform="translate(509.799911 0)"/>
     <use xlink:href="#HelveticaNeue-25" transform="translate(565.399902 0)"/>
    </g>
   </g>
   <g id="text_16">
    <!-- Table 1, one shared collection per task. Gain@1 = $(A_1-A_0)\,/\,(A_D-A_0)$; macro mean 91.7%. The second call adds 0.5 to 4.5 points. -->
    <g style="fill: #4a4f57" transform="translate(41.452891 37.551359) scale(0.095 -0.095)">
     <defs>
      <path id="HelveticaNeue-62" d="M 429 4570 
L 429 0 
L 973 0 
L 973 442 
L 986 442 
Q 1075 294 1206 195 
Q 1338 96 1485 38 
Q 1632 -19 1782 -44 
Q 1933 -70 2054 -70 
Q 2432 -70 2717 64 
Q 3002 198 3190 432 
Q 3379 666 3472 979 
Q 3565 1293 3565 1645 
Q 3565 1997 3469 2310 
Q 3373 2624 3184 2864 
Q 2995 3104 2710 3245 
Q 2426 3386 2042 3386 
Q 1696 3386 1408 3261 
Q 1120 3136 986 2861 
L 973 2861 
L 973 4570 
L 429 4570 
z
M 2989 1683 
Q 2989 1440 2937 1209 
Q 2886 979 2771 800 
Q 2656 621 2467 512 
Q 2278 403 1997 403 
Q 1715 403 1516 508 
Q 1318 614 1193 787 
Q 1069 960 1011 1187 
Q 954 1414 954 1658 
Q 954 1888 1008 2112 
Q 1062 2336 1184 2512 
Q 1306 2688 1498 2797 
Q 1690 2906 1965 2906 
Q 2227 2906 2422 2803 
Q 2618 2701 2742 2528 
Q 2867 2355 2928 2134 
Q 2989 1914 2989 1683 
z
" transform="scale(0.015625)"/>
      <path id="HelveticaNeue-2c" d="M 531 710 
L 531 0 
L 909 0 
Q 915 -77 899 -166 
Q 883 -256 838 -342 
Q 794 -429 720 -502 
Q 646 -576 538 -614 
L 538 -934 
Q 909 -826 1075 -563 
Q 1242 -301 1242 64 
L 1242 710 
L 531 710 
z
" transform="scale(0.015625)"/>
      <path id="HelveticaNeue-68" d="M 410 4570 
L 410 0 
L 954 0 
L 954 1869 
Q 954 2093 1014 2281 
Q 1075 2470 1196 2611 
Q 1318 2752 1500 2829 
Q 1683 2906 1933 2906 
Q 2246 2906 2425 2726 
Q 2605 2547 2605 2240 
L 2605 0 
L 3149 0 
L 3149 2176 
Q 3149 2445 3094 2665 
Q 3040 2886 2905 3046 
Q 2771 3206 2553 3296 
Q 2336 3386 2010 3386 
Q 1862 3386 1705 3354 
Q 1549 3322 1405 3254 
Q 1261 3187 1145 3081 
Q 1030 2976 966 2822 
L 954 2822 
L 954 4570 
L 410 4570 
z
" transform="scale(0.015625)"/>
      <path id="HelveticaNeue-74" d="M 1165 3309 
L 1165 4301 
L 621 4301 
L 621 3309 
L 58 3309 
L 58 2829 
L 621 2829 
L 621 723 
Q 621 493 665 352 
Q 710 211 803 134 
Q 896 58 1046 29 
Q 1197 0 1408 0 
L 1824 0 
L 1824 480 
L 1574 480 
Q 1446 480 1366 489 
Q 1286 499 1241 531 
Q 1197 563 1181 620 
Q 1165 678 1165 774 
L 1165 2829 
L 1824 2829 
L 1824 3309 
L 1165 3309 
z
" transform="scale(0.015625)"/>
      <path id="HelveticaNeue-70" d="M 429 3309 
L 429 -1261 
L 973 -1261 
L 973 442 
L 986 442 
Q 1075 294 1206 195 
Q 1338 96 1485 38 
Q 1632 -19 1782 -44 
Q 1933 -70 2054 -70 
Q 2432 -70 2717 64 
Q 3002 198 3190 432 
Q 3379 666 3472 979 
Q 3565 1293 3565 1645 
Q 3565 1997 3469 2310 
Q 3373 2624 3184 2864 
Q 2995 3104 2710 3245 
Q 2426 3386 2042 3386 
Q 1696 3386 1408 3261 
Q 1120 3136 986 2861 
L 973 2861 
L 973 3309 
L 429 3309 
z
M 2989 1683 
Q 2989 1440 2937 1209 
Q 2886 979 2771 800 
Q 2656 621 2467 512 
Q 2278 403 1997 403 
Q 1715 403 1516 508 
Q 1318 614 1193 787 
Q 1069 960 1011 1187 
Q 954 1414 954 1658 
Q 954 1888 1008 2112 
Q 1062 2336 1184 2512 
Q 1306 2688 1498 2797 
Q 1690 2906 1965 2906 
Q 2227 2906 2422 2803 
Q 2618 2701 2742 2528 
Q 2867 2355 2928 2134 
Q 2989 1914 2989 1683 
z
" transform="scale(0.015625)"/>
      <path id="HelveticaNeue-6b" d="M 442 4570 
L 442 0 
L 986 0 
L 986 1254 
L 1498 1728 
L 2630 0 
L 3322 0 
L 1914 2106 
L 3226 3309 
L 2496 3309 
L 986 1862 
L 986 4570 
L 442 4570 
z
" transform="scale(0.015625)"/>
      <path id="DejaVuSans-28" d="M 1984 4856 
Q 1566 4138 1362 3434 
Q 1159 2731 1159 2009 
Q 1159 1288 1364 580 
Q 1569 -128 1984 -844 
L 1484 -844 
Q 1016 -109 783 600 
Q 550 1309 550 2009 
Q 550 2706 781 3412 
Q 1013 4119 1484 4856 
L 1984 4856 
z
" transform="scale(0.015625)"/>
      <path id="DejaVuSans-Oblique-41" d="M 2356 4666 
L 3072 4666 
L 3938 0 
L 3278 0 
L 3084 1197 
L 984 1197 
L 325 0 
L -341 0 
L 2356 4666 
z
M 2584 4044 
L 1275 1722 
L 2988 1722 
L 2584 4044 
z
" transform="scale(0.015625)"/>
      <path id="DejaVuSans-31" d="M 794 531 
L 1825 531 
L 1825 4091 
L 703 3866 
L 703 4441 
L 1819 4666 
L 2450 4666 
L 2450 531 
L 3481 531 
L 3481 0 
L 794 0 
L 794 531 
z
" transform="scale(0.015625)"/>
      <path id="DejaVuSans-2212" d="M 678 2272 
L 4684 2272 
L 4684 1741 
L 678 1741 
L 678 2272 
z
" transform="scale(0.015625)"/>
      <path id="DejaVuSans-30" d="M 2034 4250 
Q 1547 4250 1301 3770 
Q 1056 3291 1056 2328 
Q 1056 1369 1301 889 
Q 1547 409 2034 409 
Q 2525 409 2770 889 
Q 3016 1369 3016 2328 
Q 3016 3291 2770 3770 
Q 2525 4250 2034 4250 
z
M 2034 4750 
Q 2819 4750 3233 4129 
Q 3647 3509 3647 2328 
Q 3647 1150 3233 529 
Q 2819 -91 2034 -91 
Q 1250 -91 836 529 
Q 422 1150 422 2328 
Q 422 3509 836 4129 
Q 1250 4750 2034 4750 
z
" transform="scale(0.015625)"/>
      <path id="DejaVuSans-29" d="M 513 4856 
L 1013 4856 
Q 1481 4119 1714 3412 
Q 1947 2706 1947 2009 
Q 1947 1309 1714 600 
Q 1481 -109 1013 -844 
L 513 -844 
Q 928 -128 1133 580 
Q 1338 1288 1338 2009 
Q 1338 2731 1133 3434 
Q 928 4138 513 4856 
z
" transform="scale(0.015625)"/>
      <path id="DejaVuSans-2f" d="M 1625 4666 
L 2156 4666 
L 531 -594 
L 0 -594 
L 1625 4666 
z
" transform="scale(0.015625)"/>
      <path id="DejaVuSans-Oblique-44" d="M 1081 4666 
L 2438 4666 
Q 3519 4666 4070 4208 
Q 4622 3750 4622 2847 
Q 4622 2250 4412 1698 
Q 4203 1147 3834 769 
Q 3463 381 2891 190 
Q 2319 0 1538 0 
L 172 0 
L 1081 4666 
z
M 1613 4147 
L 909 519 
L 1734 519 
Q 2794 519 3375 1128 
Q 3956 1738 3956 2847 
Q 3956 3519 3581 3833 
Q 3206 4147 2406 4147 
L 1613 4147 
z
" transform="scale(0.015625)"/>
      <path id="HelveticaNeue-3b" d="M 1242 2598 
L 1242 3309 
L 531 3309 
L 531 2598 
L 1242 2598 
z
M 531 710 
L 531 0 
L 909 0 
Q 915 -77 899 -166 
Q 883 -256 838 -342 
Q 794 -429 720 -502 
Q 646 -576 538 -614 
L 538 -934 
Q 909 -826 1078 -563 
Q 1248 -301 1242 64 
L 1242 710 
L 531 710 
z
" transform="scale(0.015625)"/>
      <path id="HelveticaNeue-6d" d="M 410 3309 
L 410 0 
L 954 0 
L 954 2061 
Q 954 2157 1002 2301 
Q 1050 2445 1155 2579 
Q 1261 2714 1430 2810 
Q 1600 2906 1837 2906 
Q 2022 2906 2140 2851 
Q 2259 2797 2329 2697 
Q 2400 2598 2429 2464 
Q 2458 2330 2458 2170 
L 2458 0 
L 3002 0 
L 3002 2061 
Q 3002 2445 3232 2675 
Q 3462 2906 3866 2906 
Q 4064 2906 4189 2848 
Q 4314 2790 4384 2691 
Q 4454 2592 4480 2457 
Q 4506 2323 4506 2170 
L 4506 0 
L 5050 0 
L 5050 2426 
Q 5050 2682 4970 2864 
Q 4890 3046 4746 3161 
Q 4602 3277 4400 3331 
Q 4198 3386 3949 3386 
Q 3622 3386 3350 3238 
Q 3078 3091 2912 2822 
Q 2810 3130 2560 3258 
Q 2310 3386 2003 3386 
Q 1306 3386 934 2822 
L 922 2822 
L 922 3309 
L 410 3309 
z
" transform="scale(0.015625)"/>
      <path id="HelveticaNeue-37" d="M 3258 3994 
L 3258 4461 
L 320 4461 
L 320 3949 
L 2701 3949 
Q 2342 3571 2032 3123 
Q 1722 2675 1485 2172 
Q 1248 1670 1097 1123 
Q 947 576 909 0 
L 1517 0 
Q 1549 531 1696 1094 
Q 1843 1658 2076 2189 
Q 2310 2720 2611 3187 
Q 2912 3654 3258 3994 
z
" transform="scale(0.015625)"/>
     </defs>
     <use xlink:href="#HelveticaNeue-54" transform="translate(0 0.125)"/>
     <use xlink:href="#HelveticaNeue-61" transform="translate(57.399994 0.125)"/>
     <use xlink:href="#HelveticaNeue-62" transform="translate(111.099991 0.125)"/>
     <use xlink:href="#HelveticaNeue-6c" transform="translate(170.399979 0.125)"/>
     <use xlink:href="#HelveticaNeue-65" transform="translate(192.599976 0.125)"/>
     <use xlink:href="#HelveticaNeue-20" transform="translate(246.299973 0.125)"/>
     <use xlink:href="#HelveticaNeue-31" transform="translate(274.09996 0.125)"/>
     <use xlink:href="#HelveticaNeue-2c" transform="translate(329.699951 0.125)"/>
     <use xlink:href="#HelveticaNeue-20" transform="translate(357.499939 0.125)"/>
     <use xlink:href="#HelveticaNeue-6f" transform="translate(385.299927 0.125)"/>
     <use xlink:href="#HelveticaNeue-6e" transform="translate(442.699921 0.125)"/>
     <use xlink:href="#HelveticaNeue-65" transform="translate(498.299911 0.125)"/>
     <use xlink:href="#HelveticaNeue-20" transform="translate(551.999908 0.125)"/>
     <use xlink:href="#HelveticaNeue-73" transform="translate(579.799896 0.125)"/>
     <use xlink:href="#HelveticaNeue-68" transform="translate(629.799881 0.125)"/>
     <use xlink:href="#HelveticaNeue-61" transform="translate(685.399872 0.125)"/>
     <use xlink:href="#HelveticaNeue-72" transform="translate(739.099869 0.125)"/>
     <use xlink:href="#HelveticaNeue-65" transform="translate(772.399857 0.125)"/>
     <use xlink:href="#HelveticaNeue-64" transform="translate(826.099854 0.125)"/>
     <use xlink:href="#HelveticaNeue-20" transform="translate(885.399841 0.125)"/>
     <use xlink:href="#HelveticaNeue-63" transform="translate(913.199829 0.125)"/>
     <use xlink:href="#HelveticaNeue-6f" transform="translate(966.899826 0.125)"/>
     <use xlink:href="#HelveticaNeue-6c" transform="translate(1024.29982 0.125)"/>
     <use xlink:href="#HelveticaNeue-6c" transform="translate(1046.499817 0.125)"/>
     <use xlink:href="#HelveticaNeue-65" transform="translate(1068.699814 0.125)"/>
     <use xlink:href="#HelveticaNeue-63" transform="translate(1122.399811 0.125)"/>
     <use xlink:href="#HelveticaNeue-74" transform="translate(1176.099808 0.125)"/>
     <use xlink:href="#HelveticaNeue-69" transform="translate(1207.599792 0.125)"/>
     <use xlink:href="#HelveticaNeue-6f" transform="translate(1229.799789 0.125)"/>
     <use xlink:href="#HelveticaNeue-6e" transform="translate(1287.199783 0.125)"/>
     <use xlink:href="#HelveticaNeue-20" transform="translate(1342.799774 0.125)"/>
     <use xlink:href="#HelveticaNeue-70" transform="translate(1370.599762 0.125)"/>
     <use xlink:href="#HelveticaNeue-65" transform="translate(1429.89975 0.125)"/>
     <use xlink:href="#HelveticaNeue-72" transform="translate(1483.599747 0.125)"/>
     <use xlink:href="#HelveticaNeue-20" transform="translate(1516.899734 0.125)"/>
     <use xlink:href="#HelveticaNeue-74" transform="translate(1544.699722 0.125)"/>
     <use xlink:href="#HelveticaNeue-61" transform="translate(1576.199707 0.125)"/>
     <use xlink:href="#HelveticaNeue-73" transform="translate(1629.899704 0.125)"/>
     <use xlink:href="#HelveticaNeue-6b" transform="translate(1679.899689 0.125)"/>
     <use xlink:href="#HelveticaNeue-2e" transform="translate(1731.799683 0.125)"/>
     <use xlink:href="#HelveticaNeue-20" transform="translate(1759.59967 0.125)"/>
     <use xlink:href="#HelveticaNeue-47" transform="translate(1787.399658 0.125)"/>
     <use xlink:href="#HelveticaNeue-61" transform="translate(1863.299652 0.125)"/>
     <use xlink:href="#HelveticaNeue-69" transform="translate(1916.999649 0.125)"/>
     <use xlink:href="#HelveticaNeue-6e" transform="translate(1939.199646 0.125)"/>
     <use xlink:href="#HelveticaNeue-40" transform="translate(1994.799637 0.125)"/>
     <use xlink:href="#HelveticaNeue-31" transform="translate(2074.799622 0.125)"/>
     <use xlink:href="#HelveticaNeue-20" transform="translate(2130.399612 0.125)"/>
     <use xlink:href="#HelveticaNeue-3d" transform="translate(2158.1996 0.125)"/>
     <use xlink:href="#HelveticaNeue-20" transform="translate(2218.199585 0.125)"/>
     <use xlink:href="#DejaVuSans-28" transform="translate(2245.999573 0.125)"/>
     <use xlink:href="#DejaVuSans-Oblique-41" transform="translate(2285.013245 0.125)"/>
     <use xlink:href="#DejaVuSans-31" transform="translate(2353.421448 -16.28125) scale(0.7)"/>
     <use xlink:href="#DejaVuSans-2212" transform="translate(2420.174377 0.125)"/>
     <use xlink:href="#DejaVuSans-Oblique-41" transform="translate(2523.445862 0.125)"/>
     <use xlink:href="#DejaVuSans-30" transform="translate(2591.854065 -16.28125) scale(0.7)"/>
     <use xlink:href="#DejaVuSans-29" transform="translate(2639.124573 0.125)"/>
     <use xlink:href="#DejaVuSans-2f" transform="translate(2694.373921 0.125)"/>
     <use xlink:href="#DejaVuSans-28" transform="translate(2744.301003 0.125)"/>
     <use xlink:href="#DejaVuSans-Oblique-41" transform="translate(2783.314675 0.125)"/>
     <use xlink:href="#DejaVuSans-Oblique-44" transform="translate(2851.722878 -16.28125) scale(0.7)"/>
     <use xlink:href="#DejaVuSans-2212" transform="translate(2927.841042 0.125)"/>
     <use xlink:href="#DejaVuSans-Oblique-41" transform="translate(3031.112527 0.125)"/>
     <use xlink:href="#DejaVuSans-30" transform="translate(3099.52073 -16.28125) scale(0.7)"/>
     <use xlink:href="#DejaVuSans-29" transform="translate(3146.791238 0.125)"/>
     <use xlink:href="#HelveticaNeue-3b" transform="translate(3185.80491 0.125)"/>
     <use xlink:href="#HelveticaNeue-20" transform="translate(3213.604897 0.125)"/>
     <use xlink:href="#HelveticaNeue-6d" transform="translate(3241.404885 0.125)"/>
     <use xlink:href="#HelveticaNeue-61" transform="translate(3326.704873 0.125)"/>
     <use xlink:href="#HelveticaNeue-63" transform="translate(3380.40487 0.125)"/>
     <use xlink:href="#HelveticaNeue-72" transform="translate(3434.104867 0.125)"/>
     <use xlink:href="#HelveticaNeue-6f" transform="translate(3467.404855 0.125)"/>
     <use xlink:href="#HelveticaNeue-20" transform="translate(3524.804849 0.125)"/>
     <use xlink:href="#HelveticaNeue-6d" transform="translate(3552.604836 0.125)"/>
     <use xlink:href="#HelveticaNeue-65" transform="translate(3637.904824 0.125)"/>
     <use xlink:href="#HelveticaNeue-61" transform="translate(3691.604821 0.125)"/>
     <use xlink:href="#HelveticaNeue-6e" transform="translate(3745.304818 0.125)"/>
     <use xlink:href="#HelveticaNeue-20" transform="translate(3800.904809 0.125)"/>
     <use xlink:href="#HelveticaNeue-39" transform="translate(3828.704797 0.125)"/>
     <use xlink:href="#HelveticaNeue-31" transform="translate(3884.304788 0.125)"/>
     <use xlink:href="#HelveticaNeue-2e" transform="translate(3939.904778 0.125)"/>
     <use xlink:href="#HelveticaNeue-37" transform="translate(3967.704766 0.125)"/>
     <use xlink:href="#HelveticaNeue-25" transform="translate(4023.304757 0.125)"/>
     <use xlink:href="#HelveticaNeue-2e" transform="translate(4123.304742 0.125)"/>
     <use xlink:href="#HelveticaNeue-20" transform="translate(4151.10473 0.125)"/>
     <use xlink:href="#HelveticaNeue-54" transform="translate(4178.904717 0.125)"/>
     <use xlink:href="#HelveticaNeue-68" transform="translate(4236.304711 0.125)"/>
     <use xlink:href="#HelveticaNeue-65" transform="translate(4291.904702 0.125)"/>
     <use xlink:href="#HelveticaNeue-20" transform="translate(4345.604699 0.125)"/>
     <use xlink:href="#HelveticaNeue-73" transform="translate(4373.404687 0.125)"/>
     <use xlink:href="#HelveticaNeue-65" transform="translate(4423.404672 0.125)"/>
     <use xlink:href="#HelveticaNeue-63" transform="translate(4477.104669 0.125)"/>
     <use xlink:href="#HelveticaNeue-6f" transform="translate(4530.804666 0.125)"/>
     <use xlink:href="#HelveticaNeue-6e" transform="translate(4588.204659 0.125)"/>
     <use xlink:href="#HelveticaNeue-64" transform="translate(4643.80465 0.125)"/>
     <use xlink:href="#HelveticaNeue-20" transform="translate(4703.104638 0.125)"/>
     <use xlink:href="#HelveticaNeue-63" transform="translate(4730.904626 0.125)"/>
     <use xlink:href="#HelveticaNeue-61" transform="translate(4784.604623 0.125)"/>
     <use xlink:href="#HelveticaNeue-6c" transform="translate(4838.30462 0.125)"/>
     <use xlink:href="#HelveticaNeue-6c" transform="translate(4860.504617 0.125)"/>
     <use xlink:href="#HelveticaNeue-20" transform="translate(4882.704614 0.125)"/>
     <use xlink:href="#HelveticaNeue-61" transform="translate(4910.504601 0.125)"/>
     <use xlink:href="#HelveticaNeue-64" transform="translate(4964.204598 0.125)"/>
     <use xlink:href="#HelveticaNeue-64" transform="translate(5023.504586 0.125)"/>
     <use xlink:href="#HelveticaNeue-73" transform="translate(5082.804574 0.125)"/>
     <use xlink:href="#HelveticaNeue-20" transform="translate(5132.804559 0.125)"/>
     <use xlink:href="#HelveticaNeue-30" transform="translate(5160.604547 0.125)"/>
     <use xlink:href="#HelveticaNeue-2e" transform="translate(5216.204537 0.125)"/>
     <use xlink:href="#HelveticaNeue-35" transform="translate(5244.004525 0.125)"/>
     <use xlink:href="#HelveticaNeue-20" transform="translate(5299.604516 0.125)"/>
     <use xlink:href="#HelveticaNeue-74" transform="translate(5327.404504 0.125)"/>
     <use xlink:href="#HelveticaNeue-6f" transform="translate(5358.904489 0.125)"/>
     <use xlink:href="#HelveticaNeue-20" transform="translate(5416.304482 0.125)"/>
     <use xlink:href="#HelveticaNeue-34" transform="translate(5444.10447 0.125)"/>
     <use xlink:href="#HelveticaNeue-2e" transform="translate(5499.704461 0.125)"/>
     <use xlink:href="#HelveticaNeue-35" transform="translate(5527.504449 0.125)"/>
     <use xlink:href="#HelveticaNeue-20" transform="translate(5583.10444 0.125)"/>
     <use xlink:href="#HelveticaNeue-70" transform="translate(5610.904427 0.125)"/>
     <use xlink:href="#HelveticaNeue-6f" transform="translate(5670.204415 0.125)"/>
     <use xlink:href="#HelveticaNeue-69" transform="translate(5727.604409 0.125)"/>
     <use xlink:href="#HelveticaNeue-6e" transform="translate(5749.804406 0.125)"/>
     <use xlink:href="#HelveticaNeue-74" transform="translate(5805.404397 0.125)"/>
     <use xlink:href="#HelveticaNeue-73" transform="translate(5836.904382 0.125)"/>
     <use xlink:href="#HelveticaNeue-2e" transform="translate(5886.904366 0.125)"/>
    </g>
   </g>
   <g id="text_17">
    <!-- Most measured value is available after one delegation -->
    <g style="fill: #2e3238" transform="translate(41.452891 14.063359) scale(0.115 -0.115)">
     <defs>
      <path id="HelveticaNeue-76" d="M 1901 0 
L 3110 3309 
L 2541 3309 
L 1638 550 
L 1626 550 
L 698 3309 
L 90 3309 
L 1318 0 
L 1901 0 
z
" transform="scale(0.015625)"/>
      <path id="HelveticaNeue-66" d="M 634 2829 
L 634 0 
L 1178 0 
L 1178 2829 
L 1818 2829 
L 1818 3309 
L 1178 3309 
L 1178 3770 
Q 1178 3987 1286 4064 
Q 1395 4141 1594 4141 
Q 1664 4141 1747 4131 
Q 1830 4122 1901 4096 
L 1901 4570 
Q 1824 4595 1725 4608 
Q 1626 4621 1549 4621 
Q 1101 4621 867 4413 
Q 634 4205 634 3802 
L 634 3309 
L 77 3309 
L 77 2829 
L 634 2829 
z
" transform="scale(0.015625)"/>
      <path id="HelveticaNeue-67" d="M 3264 282 
L 3264 3309 
L 2752 3309 
L 2752 2835 
L 2746 2835 
Q 2598 3110 2336 3248 
Q 2074 3386 1760 3386 
Q 1331 3386 1036 3222 
Q 742 3059 563 2806 
Q 384 2554 307 2243 
Q 230 1933 230 1638 
Q 230 1299 323 995 
Q 416 691 601 464 
Q 787 237 1062 102 
Q 1338 -32 1709 -32 
Q 2029 -32 2313 112 
Q 2598 256 2739 563 
L 2752 563 
L 2752 346 
Q 2752 70 2697 -160 
Q 2643 -390 2521 -553 
Q 2400 -717 2214 -809 
Q 2029 -902 1760 -902 
Q 1626 -902 1478 -873 
Q 1331 -845 1206 -781 
Q 1082 -717 995 -614 
Q 909 -512 902 -365 
L 358 -365 
Q 371 -634 499 -819 
Q 627 -1005 822 -1120 
Q 1018 -1235 1258 -1286 
Q 1498 -1338 1728 -1338 
Q 2522 -1338 2893 -934 
Q 3264 -531 3264 282 
z
M 1741 442 
Q 1472 442 1293 554 
Q 1114 666 1005 848 
Q 896 1030 851 1254 
Q 806 1478 806 1702 
Q 806 1939 860 2156 
Q 915 2374 1033 2540 
Q 1152 2707 1337 2806 
Q 1523 2906 1786 2906 
Q 2042 2906 2221 2803 
Q 2400 2701 2512 2531 
Q 2624 2362 2675 2150 
Q 2726 1939 2726 1722 
Q 2726 1491 2672 1260 
Q 2618 1030 2502 848 
Q 2387 666 2198 554 
Q 2010 442 1741 442 
z
" transform="scale(0.015625)"/>
     </defs>
     <use xlink:href="#HelveticaNeue-4d"/>
     <use xlink:href="#HelveticaNeue-6f" transform="translate(87.099991 0)"/>
     <use xlink:href="#HelveticaNeue-73" transform="translate(144.499985 0)"/>
     <use xlink:href="#HelveticaNeue-74" transform="translate(194.499969 0)"/>
     <use xlink:href="#HelveticaNeue-20" transform="translate(225.999954 0)"/>
     <use xlink:href="#HelveticaNeue-6d" transform="translate(253.799942 0)"/>
     <use xlink:href="#HelveticaNeue-65" transform="translate(339.09993 0)"/>
     <use xlink:href="#HelveticaNeue-61" transform="translate(392.799927 0)"/>
     <use xlink:href="#HelveticaNeue-73" transform="translate(446.499924 0)"/>
     <use xlink:href="#HelveticaNeue-75" transform="translate(496.499908 0)"/>
     <use xlink:href="#HelveticaNeue-72" transform="translate(552.099899 0)"/>
     <use xlink:href="#HelveticaNeue-65" transform="translate(583.649887 0)"/>
     <use xlink:href="#HelveticaNeue-64" transform="translate(637.349884 0)"/>
     <use xlink:href="#HelveticaNeue-20" transform="translate(696.649872 0)"/>
     <use xlink:href="#HelveticaNeue-76" transform="translate(724.44986 0)"/>
     <use xlink:href="#HelveticaNeue-61" transform="translate(774.449844 0)"/>
     <use xlink:href="#HelveticaNeue-6c" transform="translate(828.149841 0)"/>
     <use xlink:href="#HelveticaNeue-75" transform="translate(850.349838 0)"/>
     <use xlink:href="#HelveticaNeue-65" transform="translate(905.949829 0)"/>
     <use xlink:href="#HelveticaNeue-20" transform="translate(959.649826 0)"/>
     <use xlink:href="#HelveticaNeue-69" transform="translate(987.449814 0)"/>
     <use xlink:href="#HelveticaNeue-73" transform="translate(1009.649811 0)"/>
     <use xlink:href="#HelveticaNeue-20" transform="translate(1059.649796 0)"/>
     <use xlink:href="#HelveticaNeue-61" transform="translate(1087.449783 0)"/>
     <use xlink:href="#HelveticaNeue-76" transform="translate(1141.14978 0)"/>
     <use xlink:href="#HelveticaNeue-61" transform="translate(1191.149765 0)"/>
     <use xlink:href="#HelveticaNeue-69" transform="translate(1244.849762 0)"/>
     <use xlink:href="#HelveticaNeue-6c" transform="translate(1267.049759 0)"/>
     <use xlink:href="#HelveticaNeue-61" transform="translate(1289.249756 0)"/>
     <use xlink:href="#HelveticaNeue-62" transform="translate(1342.949753 0)"/>
     <use xlink:href="#HelveticaNeue-6c" transform="translate(1402.249741 0)"/>
     <use xlink:href="#HelveticaNeue-65" transform="translate(1424.449738 0)"/>
     <use xlink:href="#HelveticaNeue-20" transform="translate(1478.149734 0)"/>
     <use xlink:href="#HelveticaNeue-61" transform="translate(1505.949722 0)"/>
     <use xlink:href="#HelveticaNeue-66" transform="translate(1559.649719 0)"/>
     <use xlink:href="#HelveticaNeue-74" transform="translate(1589.24971 0)"/>
     <use xlink:href="#HelveticaNeue-65" transform="translate(1620.749695 0)"/>
     <use xlink:href="#HelveticaNeue-72" transform="translate(1674.449692 0)"/>
     <use xlink:href="#HelveticaNeue-20" transform="translate(1707.74968 0)"/>
     <use xlink:href="#HelveticaNeue-6f" transform="translate(1735.549667 0)"/>
     <use xlink:href="#HelveticaNeue-6e" transform="translate(1792.949661 0)"/>
     <use xlink:href="#HelveticaNeue-65" transform="translate(1848.549652 0)"/>
     <use xlink:href="#HelveticaNeue-20" transform="translate(1902.249649 0)"/>
     <use xlink:href="#HelveticaNeue-64" transform="translate(1930.049637 0)"/>
     <use xlink:href="#HelveticaNeue-65" transform="translate(1989.349625 0)"/>
     <use xlink:href="#HelveticaNeue-6c" transform="translate(2043.049622 0)"/>
     <use xlink:href="#HelveticaNeue-65" transform="translate(2065.249619 0)"/>
     <use xlink:href="#HelveticaNeue-67" transform="translate(2118.949615 0)"/>
     <use xlink:href="#HelveticaNeue-61" transform="translate(2176.349609 0)"/>
     <use xlink:href="#HelveticaNeue-74" transform="translate(2230.049606 0)"/>
     <use xlink:href="#HelveticaNeue-69" transform="translate(2261.549591 0)"/>
     <use xlink:href="#HelveticaNeue-6f" transform="translate(2283.749588 0)"/>
     <use xlink:href="#HelveticaNeue-6e" transform="translate(2341.149582 0)"/>
    </g>
   </g>
   <g id="text_18">
    <!-- 76.00 -->
    <g style="fill: #2e3238" transform="translate(73.712728 98.725438) scale(0.09 -0.09)">
     <use xlink:href="#HelveticaNeue-37"/>
     <use xlink:href="#HelveticaNeue-36" transform="translate(55.599991 0)"/>
     <use xlink:href="#HelveticaNeue-2e" transform="translate(111.199982 0)"/>
     <use xlink:href="#HelveticaNeue-30" transform="translate(138.999969 0)"/>
     <use xlink:href="#HelveticaNeue-30" transform="translate(194.59996 0)"/>
    </g>
   </g>
   <g id="text_19">
    <!-- 54.25 -->
    <g style="fill: #2e3238" transform="translate(205.584156 139.206538) scale(0.09 -0.09)">
     <use xlink:href="#HelveticaNeue-35"/>
     <use xlink:href="#HelveticaNeue-34" transform="translate(55.599991 0)"/>
     <use xlink:href="#HelveticaNeue-2e" transform="translate(111.199982 0)"/>
     <use xlink:href="#HelveticaNeue-32" transform="translate(138.999969 0)"/>
     <use xlink:href="#HelveticaNeue-35" transform="translate(194.59996 0)"/>
    </g>
   </g>
   <g id="text_20">
    <!-- 53.25 -->
    <g style="fill: #2e3238" transform="translate(337.455585 141.067738) scale(0.09 -0.09)">
     <use xlink:href="#HelveticaNeue-35"/>
     <use xlink:href="#HelveticaNeue-33" transform="translate(55.599991 0)"/>
     <use xlink:href="#HelveticaNeue-2e" transform="translate(111.199982 0)"/>
     <use xlink:href="#HelveticaNeue-32" transform="translate(138.999969 0)"/>
     <use xlink:href="#HelveticaNeue-35" transform="translate(194.59996 0)"/>
    </g>
   </g>
   <g id="text_21">
    <!-- 43.00 -->
    <g style="fill: #2e3238" transform="translate(469.327013 160.145038) scale(0.09 -0.09)">
     <use xlink:href="#HelveticaNeue-34"/>
     <use xlink:href="#HelveticaNeue-33" transform="translate(55.599991 0)"/>
     <use xlink:href="#HelveticaNeue-2e" transform="translate(111.199982 0)"/>
     <use xlink:href="#HelveticaNeue-30" transform="translate(138.999969 0)"/>
     <use xlink:href="#HelveticaNeue-30" transform="translate(194.59996 0)"/>
    </g>
   </g>
   <g id="text_22">
    <!-- 91.75 -->
    <g style="fill: #2e3238" transform="translate(109.318013 69.411538) scale(0.09 -0.09)">
     <use xlink:href="#HelveticaNeue-39"/>
     <use xlink:href="#HelveticaNeue-31" transform="translate(55.599991 0)"/>
     <use xlink:href="#HelveticaNeue-2e" transform="translate(111.199982 0)"/>
     <use xlink:href="#HelveticaNeue-37" transform="translate(138.999969 0)"/>
     <use xlink:href="#HelveticaNeue-35" transform="translate(194.59996 0)"/>
    </g>
   </g>
   <g id="text_23">
    <!-- 85.75 -->
    <g style="fill: #2e3238" transform="translate(241.189442 80.578738) scale(0.09 -0.09)">
     <use xlink:href="#HelveticaNeue-38"/>
     <use xlink:href="#HelveticaNeue-35" transform="translate(55.599991 0)"/>
     <use xlink:href="#HelveticaNeue-2e" transform="translate(111.199982 0)"/>
     <use xlink:href="#HelveticaNeue-37" transform="translate(138.999969 0)"/>
     <use xlink:href="#HelveticaNeue-35" transform="translate(194.59996 0)"/>
    </g>
   </g>
   <g id="text_24">
    <!-- 71.75 -->
    <g style="fill: #2e3238" transform="translate(373.060871 106.635538) scale(0.09 -0.09)">
     <use xlink:href="#HelveticaNeue-37"/>
     <use xlink:href="#HelveticaNeue-31" transform="translate(55.599991 0)"/>
     <use xlink:href="#HelveticaNeue-2e" transform="translate(111.199982 0)"/>
     <use xlink:href="#HelveticaNeue-37" transform="translate(138.999969 0)"/>
     <use xlink:href="#HelveticaNeue-35" transform="translate(194.59996 0)"/>
    </g>
   </g>
   <g id="text_25">
    <!-- 65.00 -->
    <g style="fill: #2e3238" transform="translate(504.932299 119.198638) scale(0.09 -0.09)">
     <use xlink:href="#HelveticaNeue-36"/>
     <use xlink:href="#HelveticaNeue-35" transform="translate(55.599991 0)"/>
     <use xlink:href="#HelveticaNeue-2e" transform="translate(111.199982 0)"/>
     <use xlink:href="#HelveticaNeue-30" transform="translate(138.999969 0)"/>
     <use xlink:href="#HelveticaNeue-30" transform="translate(194.59996 0)"/>
    </g>
   </g>
   <g id="text_26">
    <!-- 92.25 -->
    <g style="fill: #2e3238" transform="translate(144.923299 68.480938) scale(0.09 -0.09)">
     <use xlink:href="#HelveticaNeue-39"/>
     <use xlink:href="#HelveticaNeue-32" transform="translate(55.599991 0)"/>
     <use xlink:href="#HelveticaNeue-2e" transform="translate(111.199982 0)"/>
     <use xlink:href="#HelveticaNeue-32" transform="translate(138.999969 0)"/>
     <use xlink:href="#HelveticaNeue-35" transform="translate(194.59996 0)"/>
    </g>
   </g>
   <g id="text_27">
    <!-- 87.25 -->
    <g style="fill: #2e3238" transform="translate(276.794728 77.786938) scale(0.09 -0.09)">
     <use xlink:href="#HelveticaNeue-38"/>
     <use xlink:href="#HelveticaNeue-37" transform="translate(55.599991 0)"/>
     <use xlink:href="#HelveticaNeue-2e" transform="translate(111.199982 0)"/>
     <use xlink:href="#HelveticaNeue-32" transform="translate(138.999969 0)"/>
     <use xlink:href="#HelveticaNeue-35" transform="translate(194.59996 0)"/>
    </g>
   </g>
   <g id="text_28">
    <!-- 73.50 -->
    <g style="fill: #2e3238" transform="translate(408.666156 103.378438) scale(0.09 -0.09)">
     <use xlink:href="#HelveticaNeue-37"/>
     <use xlink:href="#HelveticaNeue-33" transform="translate(55.599991 0)"/>
     <use xlink:href="#HelveticaNeue-2e" transform="translate(111.199982 0)"/>
     <use xlink:href="#HelveticaNeue-35" transform="translate(138.999969 0)"/>
     <use xlink:href="#HelveticaNeue-30" transform="translate(194.59996 0)"/>
    </g>
   </g>
   <g id="text_29">
    <!-- 69.50 -->
    <g style="fill: #2e3238" transform="translate(540.537585 110.823238) scale(0.09 -0.09)">
     <use xlink:href="#HelveticaNeue-36"/>
     <use xlink:href="#HelveticaNeue-39" transform="translate(55.599991 0)"/>
     <use xlink:href="#HelveticaNeue-2e" transform="translate(111.199982 0)"/>
     <use xlink:href="#HelveticaNeue-35" transform="translate(138.999969 0)"/>
     <use xlink:href="#HelveticaNeue-30" transform="translate(194.59996 0)"/>
    </g>
   </g>
   <g id="legend_1">
    <g id="text_30">
     <!-- Measured oracle (not a policy) -->
     <g style="fill: #2e3238" transform="translate(45.252891 292.151266) scale(0.095 -0.095)">
      <use xlink:href="#HelveticaNeue-4d"/>
      <use xlink:href="#HelveticaNeue-65" transform="translate(87.099991 0)"/>
      <use xlink:href="#HelveticaNeue-61" transform="translate(140.799988 0)"/>
      <use xlink:href="#HelveticaNeue-73" transform="translate(194.499985 0)"/>
      <use xlink:href="#HelveticaNeue-75" transform="translate(244.499969 0)"/>
      <use xlink:href="#HelveticaNeue-72" transform="translate(300.09996 0)"/>
      <use xlink:href="#HelveticaNeue-65" transform="translate(331.649948 0)"/>
      <use xlink:href="#HelveticaNeue-64" transform="translate(385.349945 0)"/>
      <use xlink:href="#HelveticaNeue-20" transform="translate(444.649933 0)"/>
      <use xlink:href="#HelveticaNeue-6f" transform="translate(472.449921 0)"/>
      <use xlink:href="#HelveticaNeue-72" transform="translate(529.849915 0)"/>
      <use xlink:href="#HelveticaNeue-61" transform="translate(563.149902 0)"/>
      <use xlink:href="#HelveticaNeue-63" transform="translate(616.849899 0)"/>
      <use xlink:href="#HelveticaNeue-6c" transform="translate(670.549896 0)"/>
      <use xlink:href="#HelveticaNeue-65" transform="translate(692.749893 0)"/>
      <use xlink:href="#HelveticaNeue-20" transform="translate(746.44989 0)"/>
      <use xlink:href="#HelveticaNeue-28" transform="translate(774.249878 0)"/>
      <use xlink:href="#HelveticaNeue-6e" transform="translate(800.149872 0)"/>
      <use xlink:href="#HelveticaNeue-6f" transform="translate(855.749863 0)"/>
      <use xlink:href="#HelveticaNeue-74" transform="translate(913.149857 0)"/>
      <use xlink:href="#HelveticaNeue-20" transform="translate(944.649841 0)"/>
      <use xlink:href="#HelveticaNeue-61" transform="translate(972.449829 0)"/>
      <use xlink:href="#HelveticaNeue-20" transform="translate(1026.149826 0)"/>
      <use xlink:href="#HelveticaNeue-70" transform="translate(1053.949814 0)"/>
      <use xlink:href="#HelveticaNeue-6f" transform="translate(1113.249802 0)"/>
      <use xlink:href="#HelveticaNeue-6c" transform="translate(1170.649796 0)"/>
      <use xlink:href="#HelveticaNeue-69" transform="translate(1192.849792 0)"/>
      <use xlink:href="#HelveticaNeue-63" transform="translate(1215.049789 0)"/>
      <use xlink:href="#HelveticaNeue-79" transform="translate(1268.749786 0)"/>
      <use xlink:href="#HelveticaNeue-29" transform="translate(1318.749771 0)"/>
     </g>
    </g>
    <g id="patch_17">
     <path d="M 45.252891 306.230562 
L 54.752891 306.230562 
L 54.752891 298.963062 
L 45.252891 298.963062 
z
" style="fill: #c9ced6"/>
    </g>
    <g id="text_31">
     <!-- Commit, $A_0$ (no delegation) -->
     <g style="fill: #2e3238" transform="translate(62.352891 305.898062) scale(0.095 -0.095)">
      <defs>
       <path id="HelveticaNeue-43" d="M 3712 3194 
L 4320 3194 
Q 4269 3558 4102 3836 
Q 3936 4115 3686 4300 
Q 3437 4486 3117 4582 
Q 2797 4678 2438 4678 
Q 1914 4678 1507 4489 
Q 1101 4301 829 3974 
Q 557 3648 416 3209 
Q 275 2771 275 2272 
Q 275 1773 406 1337 
Q 538 902 800 582 
Q 1062 262 1459 80 
Q 1856 -102 2387 -102 
Q 3264 -102 3769 378 
Q 4275 858 4365 1722 
L 3757 1722 
Q 3738 1440 3642 1197 
Q 3546 954 3376 778 
Q 3206 602 2972 502 
Q 2739 403 2438 403 
Q 2029 403 1734 556 
Q 1440 710 1251 969 
Q 1062 1229 972 1577 
Q 883 1926 883 2317 
Q 883 2675 972 3008 
Q 1062 3341 1251 3600 
Q 1440 3859 1731 4012 
Q 2022 4166 2432 4166 
Q 2912 4166 3261 3923 
Q 3610 3680 3712 3194 
z
" transform="scale(0.015625)"/>
      </defs>
      <use xlink:href="#HelveticaNeue-43" transform="translate(0 0.90625)"/>
      <use xlink:href="#HelveticaNeue-6f" transform="translate(72.199982 0.90625)"/>
      <use xlink:href="#HelveticaNeue-6d" transform="translate(129.599976 0.90625)"/>
      <use xlink:href="#HelveticaNeue-6d" transform="translate(214.899963 0.90625)"/>
      <use xlink:href="#HelveticaNeue-69" transform="translate(300.199951 0.90625)"/>
      <use xlink:href="#HelveticaNeue-74" transform="translate(322.399948 0.90625)"/>
      <use xlink:href="#HelveticaNeue-2c" transform="translate(353.899933 0.90625)"/>
      <use xlink:href="#HelveticaNeue-20" transform="translate(381.699921 0.90625)"/>
      <use xlink:href="#DejaVuSans-Oblique-41" transform="translate(409.499908 0.90625)"/>
      <use xlink:href="#DejaVuSans-30" transform="translate(477.908112 -15.5) scale(0.7)"/>
      <use xlink:href="#HelveticaNeue-20" transform="translate(525.178619 0.90625)"/>
      <use xlink:href="#HelveticaNeue-28" transform="translate(552.978607 0.90625)"/>
      <use xlink:href="#HelveticaNeue-6e" transform="translate(578.878601 0.90625)"/>
      <use xlink:href="#HelveticaNeue-6f" transform="translate(634.478592 0.90625)"/>
      <use xlink:href="#HelveticaNeue-20" transform="translate(691.878586 0.90625)"/>
      <use xlink:href="#HelveticaNeue-64" transform="translate(719.678574 0.90625)"/>
      <use xlink:href="#HelveticaNeue-65" transform="translate(778.978561 0.90625)"/>
      <use xlink:href="#HelveticaNeue-6c" transform="translate(832.678558 0.90625)"/>
      <use xlink:href="#HelveticaNeue-65" transform="translate(854.878555 0.90625)"/>
      <use xlink:href="#HelveticaNeue-67" transform="translate(908.578552 0.90625)"/>
      <use xlink:href="#HelveticaNeue-61" transform="translate(965.978546 0.90625)"/>
      <use xlink:href="#HelveticaNeue-74" transform="translate(1019.678543 0.90625)"/>
      <use xlink:href="#HelveticaNeue-69" transform="translate(1051.178528 0.90625)"/>
      <use xlink:href="#HelveticaNeue-6f" transform="translate(1073.378525 0.90625)"/>
      <use xlink:href="#HelveticaNeue-6e" transform="translate(1130.778519 0.90625)"/>
      <use xlink:href="#HelveticaNeue-29" transform="translate(1186.37851 0.90625)"/>
     </g>
    </g>
    <g id="patch_18">
     <path d="M 192.787891 306.230562 
L 202.287891 306.230562 
L 202.287891 298.963062 
L 192.787891 298.963062 
z
" style="fill: #737a84"/>
    </g>
    <g id="text_32">
     <!-- Best one call, $A_1$ -->
     <g style="fill: #2e3238" transform="translate(209.887891 305.898062) scale(0.095 -0.095)">
      <defs>
       <path id="HelveticaNeue-42" d="M 1107 2605 
L 1107 4058 
L 2323 4058 
Q 2522 4058 2698 4035 
Q 2874 4013 3008 3936 
Q 3142 3859 3219 3718 
Q 3296 3578 3296 3334 
Q 3296 2970 3069 2787 
Q 2842 2605 2323 2605 
L 1107 2605 
z
M 499 4570 
L 499 0 
L 2707 0 
Q 3046 0 3305 112 
Q 3565 224 3741 406 
Q 3917 589 4006 825 
Q 4096 1062 4096 1312 
Q 4096 1734 3872 2028 
Q 3648 2323 3226 2413 
L 3226 2426 
Q 3552 2554 3728 2819 
Q 3904 3085 3904 3450 
Q 3904 3795 3747 4032 
Q 3590 4269 3366 4403 
Q 3264 4467 3120 4499 
Q 2976 4531 2809 4547 
Q 2643 4563 2473 4566 
Q 2304 4570 2157 4570 
L 499 4570 
z
M 1107 512 
L 1107 2093 
L 2496 2093 
Q 2688 2093 2867 2057 
Q 3046 2022 3184 1936 
Q 3322 1850 3405 1702 
Q 3488 1555 3488 1331 
Q 3488 947 3261 729 
Q 3034 512 2630 512 
L 1107 512 
z
" transform="scale(0.015625)"/>
      </defs>
      <use xlink:href="#HelveticaNeue-42" transform="translate(0 0.09375)"/>
      <use xlink:href="#HelveticaNeue-65" transform="translate(68.499985 0.09375)"/>
      <use xlink:href="#HelveticaNeue-73" transform="translate(122.199982 0.09375)"/>
      <use xlink:href="#HelveticaNeue-74" transform="translate(172.199966 0.09375)"/>
      <use xlink:href="#HelveticaNeue-20" transform="translate(203.699951 0.09375)"/>
      <use xlink:href="#HelveticaNeue-6f" transform="translate(231.499939 0.09375)"/>
      <use xlink:href="#HelveticaNeue-6e" transform="translate(288.899933 0.09375)"/>
      <use xlink:href="#HelveticaNeue-65" transform="translate(344.499924 0.09375)"/>
      <use xlink:href="#HelveticaNeue-20" transform="translate(398.199921 0.09375)"/>
      <use xlink:href="#HelveticaNeue-63" transform="translate(425.999908 0.09375)"/>
      <use xlink:href="#HelveticaNeue-61" transform="translate(479.699905 0.09375)"/>
      <use xlink:href="#HelveticaNeue-6c" transform="translate(533.399902 0.09375)"/>
      <use xlink:href="#HelveticaNeue-6c" transform="translate(555.599899 0.09375)"/>
      <use xlink:href="#HelveticaNeue-2c" transform="translate(577.799896 0.09375)"/>
      <use xlink:href="#HelveticaNeue-20" transform="translate(605.599884 0.09375)"/>
      <use xlink:href="#DejaVuSans-Oblique-41" transform="translate(633.399872 0.09375)"/>
      <use xlink:href="#DejaVuSans-31" transform="translate(701.808075 -16.3125) scale(0.7)"/>
     </g>
    </g>
    <g id="patch_19">
     <path d="M 296.337891 306.230562 
L 305.837891 306.230562 
L 305.837891 298.963062 
L 296.337891 298.963062 
z
" style="fill: #4a4f57"/>
    </g>
    <g id="text_33">
     <!-- Best measured, $A_D$ (depth $D$) -->
     <g style="fill: #2e3238" transform="translate(313.437891 305.898062) scale(0.095 -0.095)">
      <use xlink:href="#HelveticaNeue-42" transform="translate(0 0.90625)"/>
      <use xlink:href="#HelveticaNeue-65" transform="translate(68.499985 0.90625)"/>
      <use xlink:href="#HelveticaNeue-73" transform="translate(122.199982 0.90625)"/>
      <use xlink:href="#HelveticaNeue-74" transform="translate(172.199966 0.90625)"/>
      <use xlink:href="#HelveticaNeue-20" transform="translate(203.699951 0.90625)"/>
      <use xlink:href="#HelveticaNeue-6d" transform="translate(231.499939 0.90625)"/>
      <use xlink:href="#HelveticaNeue-65" transform="translate(316.799927 0.90625)"/>
      <use xlink:href="#HelveticaNeue-61" transform="translate(370.499924 0.90625)"/>
      <use xlink:href="#HelveticaNeue-73" transform="translate(424.199921 0.90625)"/>
      <use xlink:href="#HelveticaNeue-75" transform="translate(474.199905 0.90625)"/>
      <use xlink:href="#HelveticaNeue-72" transform="translate(529.799896 0.90625)"/>
      <use xlink:href="#HelveticaNeue-65" transform="translate(563.099884 0.90625)"/>
      <use xlink:href="#HelveticaNeue-64" transform="translate(616.799881 0.90625)"/>
      <use xlink:href="#HelveticaNeue-2c" transform="translate(676.099869 0.90625)"/>
      <use xlink:href="#HelveticaNeue-20" transform="translate(703.899857 0.90625)"/>
      <use xlink:href="#DejaVuSans-Oblique-41" transform="translate(731.699844 0.90625)"/>
      <use xlink:href="#DejaVuSans-Oblique-44" transform="translate(800.108047 -15.5) scale(0.7)"/>
      <use xlink:href="#HelveticaNeue-20" transform="translate(856.74379 0.90625)"/>
      <use xlink:href="#HelveticaNeue-28" transform="translate(884.543777 0.90625)"/>
      <use xlink:href="#HelveticaNeue-64" transform="translate(910.443771 0.90625)"/>
      <use xlink:href="#HelveticaNeue-65" transform="translate(969.743759 0.90625)"/>
      <use xlink:href="#HelveticaNeue-70" transform="translate(1023.443756 0.90625)"/>
      <use xlink:href="#HelveticaNeue-74" transform="translate(1082.743744 0.90625)"/>
      <use xlink:href="#HelveticaNeue-68" transform="translate(1114.243729 0.90625)"/>
      <use xlink:href="#HelveticaNeue-20" transform="translate(1169.843719 0.90625)"/>
      <use xlink:href="#DejaVuSans-Oblique-44" transform="translate(1197.643707 0.90625)"/>
      <use xlink:href="#HelveticaNeue-29" transform="translate(1274.64566 0.90625)"/>
     </g>
    </g>
   </g>
  </g>
 </g>
 <defs>
  <clipPath id="p7d4ee95dd8">
   <rect x="41.452891" y="58.063359" width="553.86" height="186.12"/>
  </clipPath>
 </defs>
</svg>
